<?xml version="1.0" encoding="UTF-8"?>
<svg xmlns="http://www.w3.org/2000/svg" xmlns:xlink="http://www.w3.org/1999/xlink" width="36px" height="36px" viewBox="0 0 36 28" version="1.1">
<g id="surface1">
<path style=" stroke:none;fill-rule:nonzero;fill:rgb(5.490196%,5.490196%,5.490196%);fill-opacity:1;" d="M 24.328125 27.464844 L 23.910156 27.347656 C 23.289062 27.0625 22.703125 26.703125 22.171875 26.28125 C 21.75 26.074219 21.300781 25.6875 20.96875 25.363281 L 20.308594 24.859375 L 19.769531 24.445312 C 19.050781 23.941406 18.390625 23.378906 17.761719 22.753906 C 17.640625 22.667969 17.460938 22.546875 17.398438 22.460938 L 16.589844 21.835938 C 16.320312 21.570312 16.289062 21.570312 15.871094 21.71875 L 14.941406 21.894531 C 14.878906 21.894531 14.820312 21.894531 14.761719 21.957031 L 14.550781 22.28125 C 14.429688 22.519531 14.429688 22.546875 14.460938 22.667969 C 14.460938 22.726562 14.550781 22.84375 14.640625 22.933594 C 14.789062 23.140625 15.238281 23.554688 15.238281 23.882812 C 15.359375 24.058594 15.359375 24.355469 15.359375 24.5625 C 15.359375 24.890625 15.328125 25.246094 15.089844 25.511719 C 14.789062 25.867188 14.429688 26.132812 14.128906 26.164062 L 13.828125 26.222656 C 13.46875 26.28125 13.441406 26.28125 13.378906 26.222656 L 13.289062 26.132812 L 13.261719 26.132812 C 13.199219 26.164062 12.929688 26.105469 12.871094 26.042969 L 12.628906 25.894531 C 12.210938 25.628906 11.941406 25.097656 11.878906 24.621094 L 11.910156 24.148438 L 11.910156 23.910156 L 11.878906 23.851562 L 11.941406 23.792969 L 12.058594 23.613281 C 12.058594 23.527344 12.148438 23.40625 12.210938 23.289062 C 12.328125 23.109375 12.328125 23.109375 12.300781 22.933594 C 12.300781 22.726562 12.210938 22.578125 11.96875 22.371094 C 11.789062 22.191406 11.488281 22.191406 11.25 22.164062 C 11.128906 22.164062 10.949219 22.132812 10.828125 22.25 L 10.679688 22.371094 C 10.648438 22.429688 10.320312 22.667969 10.109375 22.753906 C 9.871094 22.933594 9.601562 22.753906 9.328125 22.875 C 9.058594 22.992188 8.96875 23.378906 8.609375 23.378906 L 8.578125 23.378906 L 8.578125 23.347656 L 8.730469 23.171875 C 9 22.84375 9.058594 22.726562 8.941406 22.636719 C 8.730469 22.429688 8.339844 23.023438 8.191406 23.023438 L 8.160156 23.023438 L 8.160156 22.992188 L 8.371094 22.753906 C 8.671875 22.488281 8.699219 22.398438 8.550781 22.191406 C 8.488281 22.132812 8.429688 21.984375 8.429688 21.925781 L 8.308594 21.6875 C 8.011719 21.480469 7.648438 21.453125 7.320312 21.332031 C 7.109375 21.246094 7.109375 21.183594 6.929688 21.066406 L 6.808594 21.007812 L 6.78125 21.007812 L 6.78125 21.066406 L 6.960938 21.332031 C 7.167969 21.511719 7.328125 21.734375 7.441406 21.984375 C 7.589844 22.132812 7.921875 22.695312 8.039062 22.992188 L 8.28125 23.496094 C 8.371094 23.703125 8.371094 23.882812 8.28125 24 L 8.21875 24.148438 C 7.949219 24.503906 7.589844 24.503906 7.261719 24.207031 C 7.199219 24.148438 6.539062 23.703125 6.539062 23.464844 L 6.421875 23.289062 C 6.179688 22.84375 6.121094 22.753906 6 22.398438 C 5.730469 21.75 5.699219 21.007812 5.460938 20.324219 C 5.398438 20.207031 5.371094 20.207031 5.128906 20.117188 C 4.949219 20.089844 4.710938 19.96875 4.648438 19.882812 C 4.5 19.734375 4.558594 19.347656 4.648438 19.199219 C 4.859375 18.875 4.53125 18.546875 4.351562 18.3125 C 3.910156 17.808594 3.507812 17.273438 3.148438 16.710938 C 2.941406 16.414062 2.578125 15.734375 2.488281 15.496094 C 2.371094 15.109375 2.371094 14.964844 2.398438 14.785156 C 2.460938 14.546875 2.578125 14.3125 2.878906 14.429688 C 2.941406 14.429688 2.96875 14.488281 3.03125 14.519531 C 3.601562 14.785156 3.929688 15.378906 4.171875 15.910156 C 4.261719 16.089844 4.378906 16.265625 4.441406 16.472656 L 4.828125 17.570312 L 4.949219 17.984375 L 5.101562 18.339844 L 5.25 18.636719 L 5.308594 18.667969 L 5.398438 18.636719 C 5.488281 18.578125 5.699219 18.074219 5.789062 17.660156 C 5.910156 17.15625 5.96875 17.007812 6.058594 16.976562 C 6.269531 16.769531 6.328125 16.445312 6.449219 16.179688 C 6.480469 16.089844 6.539062 15.882812 6.660156 15.820312 C 6.859375 15.605469 7.050781 15.375 7.230469 15.140625 L 7.410156 14.964844 L 7.558594 14.726562 C 7.710938 14.578125 7.621094 14.519531 6.691406 13.808594 C 6.449219 13.660156 6.210938 13.453125 6 13.246094 C 5.851562 13.183594 5.789062 13.066406 5.640625 13.007812 L 5.429688 12.828125 L 5.128906 12.621094 C 4.769531 12.445312 4.558594 12.238281 4.261719 12 C 3.988281 11.792969 3.75 11.585938 3.71875 11.464844 L 3.628906 11.171875 C 3.628906 10.875 3.71875 10.460938 4.078125 10.460938 L 4.441406 10.371094 C 4.558594 10.339844 5.191406 10.28125 5.070312 9.984375 L 4.949219 9.777344 L 4.621094 9.273438 L 4.289062 8.769531 L 3.480469 7.820312 C 3.269531 7.613281 3.210938 7.4375 3.238281 7.171875 C 3.269531 6.875 3.328125 6.785156 3.78125 6.460938 C 3.929688 6.339844 4.230469 6.132812 4.351562 6.105469 L 4.648438 5.957031 C 4.980469 5.808594 5.550781 5.601562 5.789062 5.570312 L 6.148438 5.480469 L 7.140625 5.394531 C 7.648438 5.304688 8.25 5.332031 8.671875 5.453125 C 9.058594 5.601562 9.71875 5.957031 10.351562 6.429688 L 10.710938 6.667969 L 11.101562 6.933594 L 12.089844 7.644531 L 12.480469 7.941406 C 12.894531 8.195312 13.296875 8.472656 13.679688 8.769531 L 14.039062 8.976562 L 14.160156 9.035156 L 14.21875 9.007812 C 14.21875 8.652344 14.488281 8.265625 14.761719 8.03125 C 15.089844 7.820312 15.210938 7.761719 15.660156 7.820312 L 15.839844 7.851562 L 15.839844 7.820312 C 15.839844 7.761719 16.53125 7.257812 16.621094 7.257812 L 16.859375 7.140625 C 17.070312 7.050781 17.101562 7.023438 17.191406 6.84375 L 17.371094 6.636719 C 17.550781 6.488281 17.730469 6.753906 17.789062 6.875 C 17.878906 6.992188 17.878906 6.992188 18.210938 7.082031 C 18.71875 7.195312 19.210938 7.363281 19.679688 7.585938 C 19.890625 7.761719 20.21875 7.96875 20.371094 8.03125 L 20.578125 8.089844 L 20.851562 8.03125 C 20.96875 8.03125 21.03125 8.03125 21.121094 8.089844 C 21.390625 8.207031 21.660156 8.445312 21.480469 8.769531 L 21.210938 9.066406 C 21.089844 9.214844 21.089844 9.214844 21.089844 9.601562 C 21.121094 10.015625 21.121094 10.015625 21.03125 10.222656 C 20.820312 10.636719 20.941406 10.695312 20.789062 11.109375 C 20.730469 11.40625 20.789062 11.464844 21.121094 11.289062 C 21.390625 11.171875 21.691406 10.875 21.898438 10.546875 C 22.078125 10.3125 22.199219 10.191406 22.441406 10.042969 C 22.589844 9.957031 22.648438 9.894531 22.710938 9.75 C 22.921875 9.394531 23.011719 9.332031 23.398438 9.214844 C 23.671875 9.15625 23.910156 9.214844 24.71875 9.511719 C 25.050781 9.628906 25.230469 9.75 25.46875 9.894531 L 25.800781 10.074219 C 26.160156 10.074219 26.339844 9.777344 26.519531 9.511719 C 26.699219 9.183594 26.789062 9.097656 27.089844 8.890625 C 27.210938 8.800781 27.300781 8.621094 27.449219 8.621094 L 27.601562 8.5625 C 27.628906 8.535156 28.078125 8.265625 28.171875 8.265625 C 28.46875 8.089844 29.160156 7.910156 29.371094 7.941406 C 29.789062 8 30.269531 8.265625 30.570312 8.5625 C 30.691406 8.5625 30.898438 8.859375 30.960938 8.917969 C 31.019531 8.917969 31.140625 9.035156 31.199219 9.183594 L 31.320312 9.421875 C 31.558594 9.6875 31.679688 10.753906 31.558594 11.320312 L 31.46875 11.820312 L 31.378906 12.324219 L 31.289062 12.652344 C 31.199219 12.917969 31.140625 12.976562 30.988281 13.214844 C 30.898438 13.304688 30.898438 13.332031 30.929688 13.394531 L 31.261719 13.75 C 31.921875 14.371094 32.550781 15.050781 32.699219 15.289062 L 32.878906 15.585938 C 33.121094 15.882812 33.148438 16.207031 32.96875 16.445312 C 32.910156 16.535156 32.851562 16.5625 32.671875 16.621094 L 32.039062 16.828125 C 31.890625 16.828125 31.378906 16.769531 31.230469 16.710938 L 30.390625 16.324219 L 29.640625 15.96875 L 29.429688 15.820312 L 29.308594 15.761719 L 29.160156 15.703125 C 28.949219 15.496094 28.828125 15.703125 28.621094 15.851562 C 28.199219 16.207031 28.050781 16.296875 27.660156 16.503906 L 27.179688 16.769531 L 26.398438 17.332031 C 26.28125 17.453125 26.191406 17.511719 26.070312 17.539062 L 25.828125 17.628906 C 25.679688 17.71875 25.710938 17.808594 25.980469 18.015625 L 26.429688 18.460938 L 26.910156 18.875 L 28.019531 19.734375 L 28.558594 20.238281 C 28.980469 20.59375 29.308594 21.097656 29.039062 21.660156 C 28.949219 21.867188 28.710938 22.132812 28.441406 22.339844 C 28.078125 22.605469 28.078125 22.636719 27.929688 23.050781 C 27.839844 23.347656 27.660156 23.820312 27.960938 24.058594 L 28.410156 24.355469 C 28.769531 24.59375 28.921875 24.769531 29.070312 25.007812 C 29.191406 25.214844 29.25 25.660156 29.101562 25.867188 C 29.039062 26.015625 28.769531 26.25 28.558594 26.339844 C 27.210938 26.933594 26.160156 27.320312 25.769531 27.378906 L 25.171875 27.4375 L 24.628906 27.464844 Z M 2.488281 20.742188 L 2.398438 20.5625 L 2.371094 20.503906 C 2.28125 20.445312 2.101562 19.703125 2.039062 19.171875 C 1.921875 18.074219 1.980469 17.332031 2.25 16.800781 L 2.371094 16.535156 L 2.398438 16.414062 L 2.460938 16.414062 L 2.429688 16.503906 L 2.339844 16.800781 C 2.101562 17.332031 2.070312 17.808594 2.128906 18.695312 C 2.160156 19.464844 2.25 19.585938 2.429688 20.324219 C 2.460938 20.414062 2.460938 20.5625 2.550781 20.652344 L 2.609375 20.828125 L 2.609375 20.890625 L 2.578125 20.890625 Z M 1.589844 18.902344 L 1.53125 18.25 C 1.46875 17.539062 1.558594 16.949219 1.800781 16.472656 C 1.980469 16.058594 2.101562 15.882812 2.191406 15.882812 L 2.21875 15.882812 L 2.21875 15.96875 L 2.191406 15.96875 L 2.070312 16.179688 L 1.890625 16.503906 C 1.800781 16.621094 1.679688 16.976562 1.648438 17.183594 C 1.589844 17.480469 1.621094 18.546875 1.679688 18.753906 L 1.648438 18.875 L 1.621094 18.933594 Z M 28.171875 5.835938 C 28.171875 5.75 28.320312 5.6875 28.378906 5.660156 C 28.53125 5.570312 28.949219 5.332031 29.070312 5.214844 L 29.339844 5.15625 L 29.820312 5.035156 C 30.613281 4.742188 31.464844 4.628906 32.308594 4.710938 C 32.640625 4.769531 33.121094 4.800781 33.421875 5.007812 L 33.71875 5.15625 L 33.988281 5.332031 L 34.230469 5.480469 L 34.378906 5.601562 L 34.410156 5.660156 L 34.410156 5.6875 L 34.378906 5.6875 L 34.140625 5.570312 L 33.898438 5.421875 L 33.808594 5.394531 C 33.75 5.304688 33.238281 5.035156 33.03125 5.007812 L 32.699219 4.917969 C 32.121094 4.839844 31.535156 4.851562 30.960938 4.949219 C 30.628906 4.976562 30.148438 5.097656 29.550781 5.304688 C 29.28125 5.394531 29.070312 5.394531 28.800781 5.511719 C 28.589844 5.601562 28.378906 5.6875 28.230469 5.835938 L 28.171875 5.867188 Z M 26.941406 5.066406 C 26.941406 5.035156 27.179688 4.828125 27.390625 4.710938 L 27.871094 4.324219 C 28.289062 4.03125 28.5 3.882812 28.769531 3.820312 L 29.21875 3.675781 L 29.578125 3.527344 L 30.121094 3.347656 C 30.570312 3.199219 30.871094 3.109375 31.199219 3.109375 L 31.679688 3.023438 C 31.921875 2.964844 32.128906 2.902344 32.371094 2.902344 C 32.460938 2.902344 32.671875 2.902344 32.671875 3.050781 L 32.671875 3.082031 L 32.609375 3.050781 C 32.460938 2.992188 32.070312 3.023438 31.648438 3.171875 L 31.199219 3.257812 C 31.050781 3.257812 30.691406 3.320312 30.539062 3.40625 L 30.058594 3.554688 L 29.671875 3.703125 L 29.578125 3.761719 L 29.550781 3.792969 L 29.488281 3.792969 C 29.460938 3.761719 28.921875 3.941406 28.710938 4.03125 C 28.289062 4.238281 27.898438 4.503906 27.539062 4.769531 C 27.238281 5.007812 27.089844 5.097656 27 5.097656 L 26.941406 5.097656 Z M 26.941406 5.066406 "/>
<path style=" stroke:none;fill-rule:nonzero;fill:rgb(100%,100%,100%);fill-opacity:1;" d="M 24.269531 27.320312 C 24.058594 27.257812 23.730469 27.082031 23.609375 26.992188 L 23.398438 26.875 L 22.46875 26.25 L 22.109375 26.015625 C 21.75 25.777344 21.75 25.808594 21.421875 25.511719 L 20.429688 24.742188 L 20.011719 24.445312 L 19.289062 23.882812 C 18.886719 23.617188 18.515625 23.308594 18.179688 22.964844 L 17.941406 22.726562 L 17.488281 22.339844 L 16.980469 21.894531 C 16.921875 21.835938 16.710938 21.71875 16.738281 21.570312 C 16.769531 21.421875 17.011719 21.511719 17.070312 21.570312 C 17.371094 21.71875 17.609375 21.957031 17.878906 22.164062 L 19.621094 23.613281 C 19.921875 23.910156 20.730469 24.5625 21 24.769531 L 21.359375 25.035156 L 22.949219 26.222656 C 23.191406 26.429688 23.609375 26.695312 23.761719 26.753906 L 24.210938 26.875 C 24.71875 26.964844 25.289062 26.933594 25.949219 26.753906 L 27.121094 26.398438 L 27.988281 26.105469 C 28.140625 26.074219 28.410156 25.984375 28.558594 25.894531 L 28.859375 25.777344 L 28.921875 25.777344 L 28.949219 25.835938 C 28.980469 25.984375 28.800781 26.105469 28.289062 26.339844 C 28.042969 26.417969 27.800781 26.515625 27.570312 26.636719 L 27.421875 26.695312 C 27.148438 26.816406 26.039062 27.171875 25.648438 27.257812 C 24.960938 27.378906 24.960938 27.320312 24.269531 27.320312 Z M 24.539062 26.816406 C 24.300781 26.816406 24 26.726562 23.851562 26.636719 C 23.671875 26.578125 23.339844 26.339844 23.191406 26.222656 L 22.828125 25.957031 L 22.410156 25.601562 L 21.898438 25.214844 C 21.691406 25.097656 21.628906 25.007812 21.449219 24.859375 C 21.421875 24.828125 21.328125 24.742188 21.269531 24.742188 L 21.058594 24.5625 C 20.941406 24.386719 20.28125 23.910156 20.128906 23.792969 L 18.988281 22.902344 L 17.910156 22.015625 L 17.578125 21.71875 L 17.308594 21.453125 C 17.28125 21.363281 17.308594 21.304688 17.398438 21.273438 C 17.609375 21.246094 17.910156 21.125 18.089844 21.035156 L 18.539062 20.859375 L 19.019531 20.679688 C 19.320312 20.503906 19.46875 20.679688 19.710938 20.859375 C 20.28125 21.335938 20.859375 21.800781 21.449219 22.25 C 21.78125 22.636719 22.230469 22.875 22.679688 23.140625 L 23.578125 23.613281 L 24.210938 23.792969 C 24.300781 23.820312 24.480469 24.058594 24.628906 24.324219 C 25.320312 25.480469 25.589844 25.867188 25.710938 25.925781 C 25.769531 25.925781 25.980469 25.835938 25.980469 25.75 C 26.011719 25.6875 25.949219 25.394531 25.890625 25.214844 C 25.710938 24.800781 25.5 24.386719 25.351562 23.941406 C 25.230469 23.644531 25.410156 23.527344 25.679688 23.4375 C 25.980469 23.347656 26.21875 23.257812 26.519531 23.378906 C 26.789062 23.496094 26.941406 23.613281 27 23.761719 L 27 24.089844 C 26.945312 24.480469 26.9375 24.878906 26.96875 25.273438 C 27.03125 25.601562 27.300781 25.332031 27.328125 25.183594 C 27.421875 25.066406 27.539062 24.5625 27.628906 24.445312 C 27.71875 24.179688 27.839844 24.179688 28.078125 24.414062 L 28.351562 24.59375 C 28.558594 24.679688 28.769531 24.859375 28.828125 25.007812 C 29.011719 25.363281 28.589844 25.777344 28.261719 25.835938 L 28.140625 25.894531 C 28.050781 25.957031 27.71875 26.105469 27.03125 26.3125 L 26.671875 26.429688 C 26.578125 26.488281 26.429688 26.519531 26.371094 26.519531 L 25.890625 26.636719 C 25.46875 26.785156 24.871094 26.84375 24.539062 26.816406 Z M 13.46875 25.984375 L 13.078125 25.894531 L 12.808594 25.808594 C 12.660156 25.71875 12.359375 25.421875 12.238281 25.214844 C 12.089844 24.976562 12.058594 24.769531 12.058594 24.386719 C 12.089844 24.089844 12.089844 24.058594 12.179688 23.851562 C 12.300781 23.554688 12.449219 23.347656 12.71875 23.171875 C 12.988281 22.992188 13.589844 22.816406 13.769531 22.875 C 13.859375 22.875 14.398438 23.140625 14.578125 23.257812 C 14.789062 23.40625 15.058594 23.792969 15.121094 24.03125 C 15.210938 24.324219 15.179688 24.472656 15.03125 24.917969 C 14.941406 25.246094 14.878906 25.363281 14.789062 25.453125 C 14.550781 25.75 14.128906 25.957031 13.859375 25.984375 Z M 14.039062 25.007812 C 14.128906 24.949219 14.339844 24.859375 14.339844 24.710938 L 14.339844 24.386719 C 14.339844 24.03125 14.339844 24 14.25 23.910156 C 14.160156 23.792969 13.949219 23.644531 13.828125 23.613281 L 13.558594 23.703125 L 13.261719 23.882812 C 13.019531 24.089844 13.019531 24.503906 13.171875 24.742188 C 13.199219 24.769531 13.261719 24.917969 13.320312 24.949219 L 13.441406 25.007812 C 13.621094 25.035156 13.859375 25.066406 14.039062 25.007812 Z M 25.621094 25.660156 L 25.140625 24.949219 L 25.050781 24.742188 C 24.898438 24.535156 24.628906 24.089844 24.539062 23.851562 L 24.601562 23.734375 L 24.808594 23.703125 C 24.960938 23.703125 24.988281 23.734375 25.050781 23.851562 C 25.21875 24.128906 25.367188 24.417969 25.5 24.710938 C 25.828125 25.363281 25.890625 25.601562 25.828125 25.6875 C 25.800781 25.777344 25.710938 25.75 25.621094 25.660156 Z M 27.121094 25.097656 C 27.089844 25.007812 27.121094 24.710938 27.238281 24.089844 L 27.300781 23.40625 C 27.328125 22.902344 27.359375 22.816406 27.449219 22.753906 C 27.539062 22.667969 27.75 22.636719 27.78125 22.695312 C 27.871094 22.753906 27.839844 22.875 27.691406 23.378906 L 27.511719 24.148438 C 27.480469 24.414062 27.300781 25.007812 27.269531 25.097656 L 27.179688 25.15625 L 27.148438 25.15625 Z M 7.558594 24.238281 C 7.410156 24.148438 7.171875 24 7.109375 23.882812 L 7.019531 23.792969 L 6.871094 23.613281 L 6.660156 23.320312 L 6.570312 23.140625 C 6.300781 22.753906 6.238281 22.546875 5.910156 21.332031 L 5.789062 20.828125 L 5.699219 20.265625 L 5.609375 19.851562 L 5.640625 19.820312 L 5.671875 19.851562 L 5.878906 20.207031 L 6.148438 20.652344 L 6.539062 21.125 L 6.960938 21.628906 C 7.171875 21.894531 7.320312 22.132812 7.648438 22.753906 C 7.890625 23.230469 7.980469 23.378906 8.070312 23.910156 C 8.101562 24 8.039062 24.089844 7.980469 24.148438 C 7.890625 24.265625 7.710938 24.296875 7.558594 24.238281 Z M 24.148438 23.527344 L 23.609375 23.4375 C 23.101562 23.199219 22.828125 23.050781 22.5 22.816406 L 22.019531 22.488281 L 21.539062 22.105469 C 21.089844 21.660156 20.851562 21.480469 20.339844 21.097656 L 19.980469 20.828125 L 18.71875 19.882812 L 18.300781 19.585938 C 18.179688 19.496094 17.941406 19.320312 17.789062 19.140625 C 17.460938 18.84375 16.890625 18.398438 16.621094 18.25 C 15.898438 17.808594 15.328125 17.125 14.609375 16.679688 L 13.710938 16 L 13.289062 15.675781 L 12.839844 15.320312 L 12.480469 15.050781 L 12 14.695312 C 11.878906 14.605469 11.761719 14.429688 11.609375 14.371094 L 11.519531 14.339844 L 11.519531 14.3125 L 11.25 14.074219 L 10.921875 13.808594 L 10.621094 13.570312 C 10.351562 13.214844 9.929688 12.949219 9.539062 12.679688 L 9.058594 12.324219 C 8.578125 11.910156 8.070312 11.527344 7.710938 11.289062 C 7.351562 11.050781 7.050781 10.726562 6.660156 10.546875 L 5.699219 9.75 C 5.28125 9.453125 4.828125 9.066406 4.738281 8.949219 L 4.441406 8.679688 C 4.078125 8.355469 3.628906 7.882812 3.511719 7.675781 C 3.421875 7.496094 3.390625 7.320312 3.480469 7.289062 L 3.511719 7.289062 L 3.539062 7.347656 C 3.738281 7.539062 3.929688 7.734375 4.109375 7.941406 C 4.53125 8.355469 4.710938 8.535156 5.25 8.949219 L 6.238281 9.6875 L 6.78125 10.105469 L 7.441406 10.578125 C 7.921875 10.875 8.070312 10.992188 8.761719 11.554688 L 9.570312 12.207031 L 9.898438 12.472656 C 10.171875 12.742188 10.46875 12.917969 10.738281 13.15625 C 11.21875 13.601562 11.550781 13.835938 12.449219 14.460938 L 12.871094 14.785156 L 13.320312 15.109375 L 13.859375 15.527344 L 14.488281 15.96875 L 15.089844 16.445312 C 15.238281 16.5625 15.359375 16.710938 15.539062 16.800781 C 15.601562 16.859375 15.75 16.859375 15.808594 16.917969 L 15.929688 17.007812 L 16.378906 17.363281 L 17.011719 17.835938 L 17.398438 18.191406 L 17.761719 18.460938 L 19.558594 19.851562 C 20.011719 20.207031 20.398438 20.5625 20.878906 20.859375 L 21.359375 21.246094 L 21.570312 21.453125 L 22.351562 22.042969 C 22.710938 22.398438 23.339844 22.84375 23.519531 22.933594 C 24.03125 23.050781 24.75 23.140625 25.261719 22.902344 C 25.53125 22.726562 27.75 21.984375 28.109375 21.925781 L 28.410156 21.835938 C 28.441406 21.835938 28.589844 21.71875 28.648438 21.808594 L 28.679688 21.808594 L 28.648438 21.894531 C 28.589844 22.015625 28.410156 22.105469 28.140625 22.25 L 27.871094 22.398438 L 27.660156 22.488281 C 27.539062 22.488281 27.238281 22.605469 26.96875 22.726562 L 26.308594 22.964844 C 26.070312 23.023438 25.710938 23.289062 25.441406 23.289062 L 24.960938 23.4375 C 24.628906 23.527344 24.300781 23.585938 24.148438 23.527344 Z M 26.820312 23.320312 L 26.671875 23.140625 L 26.640625 23.109375 L 26.671875 23.050781 C 26.761719 22.964844 26.910156 22.933594 27 22.902344 C 27.058594 22.902344 27.121094 22.902344 27.148438 22.964844 C 27.210938 23.050781 27.179688 23.171875 27.148438 23.257812 C 27.089844 23.4375 27.03125 23.4375 26.820312 23.320312 Z M 12.601562 22.875 L 12.480469 22.726562 L 12.03125 22.191406 C 11.910156 22.042969 11.820312 21.867188 11.851562 21.777344 C 11.851562 21.6875 11.96875 21.6875 12.03125 21.6875 L 13.050781 21.660156 L 13.769531 21.570312 C 14.191406 21.539062 14.25 21.511719 14.429688 21.453125 C 14.640625 21.363281 14.671875 21.332031 14.730469 21.421875 C 14.789062 21.453125 14.761719 21.570312 14.609375 21.867188 C 14.488281 22.074219 14.339844 22.429688 14.339844 22.605469 L 14.25 22.753906 L 14.21875 22.785156 L 14.070312 22.726562 C 13.738281 22.578125 13.140625 22.667969 12.839844 22.84375 C 12.71875 22.902344 12.660156 22.902344 12.601562 22.875 Z M 24.089844 22.875 L 23.730469 22.785156 L 22.921875 22.28125 L 22.5 21.984375 L 22.261719 21.75 L 22.078125 21.570312 L 20.878906 20.621094 L 20.429688 20.265625 C 19.53125 19.675781 19.5 19.644531 19.109375 19.289062 L 18.539062 18.84375 L 17.910156 18.398438 L 17.550781 18.132812 L 16.828125 17.511719 L 16.46875 17.246094 L 15.988281 16.890625 L 15.238281 16.324219 L 14.878906 16.058594 L 14.640625 15.882812 L 14.398438 15.703125 C 14.070312 15.378906 13.621094 15.140625 13.230469 14.84375 L 12.238281 14.132812 L 11.640625 13.6875 L 11.160156 13.332031 L 10.921875 13.15625 L 10.589844 12.859375 L 10.171875 12.503906 L 9.898438 12.324219 L 8.101562 10.84375 C 7.890625 10.667969 7.378906 10.371094 7.171875 10.164062 L 6.871094 9.957031 C 6.480469 9.71875 5.851562 9.246094 5.609375 9.007812 L 5.308594 8.800781 L 4.980469 8.5625 C 4.5 8.179688 4.171875 7.703125 3.75 7.289062 C 3.628906 7.140625 3.601562 6.964844 3.691406 6.785156 C 3.78125 6.636719 4.050781 6.429688 4.5 6.222656 C 4.890625 6.015625 5.101562 5.957031 5.550781 5.835938 L 6.089844 5.6875 C 6.238281 5.628906 6.328125 5.628906 7.828125 5.539062 L 8.308594 5.570312 C 8.789062 5.808594 8.820312 5.6875 9.300781 5.957031 C 9.863281 6.234375 10.386719 6.585938 10.859375 6.992188 L 11.191406 7.230469 C 11.308594 7.347656 11.398438 7.4375 12.359375 8.058594 L 13.230469 8.652344 L 13.859375 9.066406 C 14.28125 9.363281 14.398438 9.453125 14.519531 9.75 C 14.609375 9.925781 14.609375 9.957031 14.609375 10.132812 C 14.519531 10.371094 14.460938 11.023438 14.429688 11.199219 C 14.398438 11.644531 14.398438 11.675781 14.460938 11.851562 L 14.640625 12.179688 C 14.761719 12.386719 15.058594 12.652344 15.238281 12.769531 L 15.570312 12.917969 C 15.929688 13.125 15.929688 13.125 16.320312 13.214844 C 16.828125 13.304688 17.371094 13.363281 17.851562 13.332031 L 18.328125 13.304688 C 18.328125 13.214844 18.449219 13.214844 18.511719 13.246094 C 18.871094 13.273438 19.230469 13.273438 19.558594 13.421875 C 19.835938 13.535156 20.089844 13.695312 20.308594 13.894531 L 20.671875 14.164062 L 20.851562 14.28125 L 21.03125 14.460938 L 21.570312 14.84375 C 22.078125 15.257812 22.589844 15.703125 23.128906 16.058594 L 23.789062 16.59375 L 24.328125 17.007812 L 25.289062 17.75 L 25.710938 18.074219 L 26.519531 18.785156 L 27.75 19.820312 L 28.351562 20.296875 C 28.558594 20.472656 28.769531 20.710938 28.828125 20.859375 C 28.949219 20.976562 28.859375 21.421875 28.738281 21.480469 C 28.46875 21.628906 27.988281 21.777344 27.691406 21.867188 C 27.601562 21.894531 27.480469 21.894531 27.421875 21.957031 L 27.148438 22.074219 L 26.941406 22.132812 C 26.730469 22.191406 26.519531 22.222656 26.339844 22.339844 L 25.980469 22.460938 L 25.558594 22.605469 C 25.351562 22.695312 25.199219 22.753906 24.691406 22.875 Z M 9.960938 22.164062 C 10.050781 22.105469 10.199219 22.074219 10.378906 22.132812 C 10.621094 22.222656 10.558594 22.339844 10.171875 22.578125 L 9.78125 22.726562 C 9.71875 22.726562 9.601562 22.753906 9.539062 22.695312 L 9.511719 22.546875 C 9.539062 22.460938 9.539062 22.371094 9.628906 22.3125 C 9.75 22.222656 9.871094 22.25 9.960938 22.164062 Z M 9.058594 22.488281 C 8.941406 22.371094 8.941406 22.3125 9.03125 22.164062 C 9.121094 22.042969 9.210938 22.042969 9.300781 22.164062 L 9.359375 22.222656 C 9.421875 22.3125 9.390625 22.398438 9.328125 22.488281 C 9.300781 22.519531 9.238281 22.578125 9.179688 22.578125 Z M 8.671875 22.132812 C 8.578125 22.074219 8.519531 21.867188 8.578125 21.835938 C 8.640625 21.75 8.910156 21.777344 8.96875 21.894531 C 9 22.015625 8.851562 22.191406 8.730469 22.191406 Z M 10.738281 21.957031 L 10.46875 21.957031 L 9.929688 21.867188 C 9.808594 21.808594 9.808594 21.75 9.839844 21.453125 L 9.839844 21.035156 L 9.871094 20.828125 L 9.808594 20.800781 L 9.78125 20.800781 L 9.78125 20.890625 L 9.660156 21.601562 C 9.570312 21.75 9.449219 21.71875 9.300781 21.660156 L 9.300781 21.394531 L 9.421875 20.414062 L 9.421875 20.148438 L 9.328125 20.148438 L 9.328125 20.355469 L 9.210938 21.332031 C 9.148438 21.628906 9.121094 21.660156 8.820312 21.570312 C 8.550781 21.480469 8.371094 21.421875 8.371094 21.363281 L 8.339844 21.304688 L 8.398438 21.246094 C 8.644531 20.875 8.816406 20.460938 8.910156 20.03125 C 9.058594 19.464844 9.089844 18.84375 8.910156 18.28125 C 8.820312 17.984375 8.671875 17.660156 8.519531 17.363281 C 8.371094 17.007812 8.039062 16.5625 7.648438 16.414062 C 7.351562 16.265625 7.378906 16.207031 7.078125 16.058594 C 6.988281 16.03125 6.871094 16.058594 6.808594 16 C 6.71875 15.910156 6.839844 15.761719 6.871094 15.703125 L 7.378906 15.171875 C 7.714844 14.851562 8.097656 14.59375 8.519531 14.398438 L 8.761719 14.25 C 9.179688 13.984375 9.75 13.660156 10.261719 13.660156 C 10.378906 13.660156 10.53125 13.777344 10.621094 13.835938 C 10.980469 14.132812 11.25 14.3125 11.339844 14.339844 L 12.121094 14.992188 L 12.480469 15.230469 L 12.691406 15.40625 L 13.320312 15.851562 L 14.128906 16.503906 L 14.429688 16.742188 L 14.96875 17.214844 C 15.179688 17.421875 15.449219 17.660156 15.601562 17.71875 L 16.140625 18.164062 C 16.46875 18.460938 16.5 18.488281 16.351562 18.605469 C 16.109375 18.753906 15.808594 18.84375 15.691406 19.109375 C 15.570312 19.289062 15.75 19.4375 15.929688 19.4375 C 16.140625 19.40625 16.679688 19.257812 16.890625 19.140625 C 17.070312 19.050781 17.101562 19.050781 17.25 19.050781 C 17.398438 19.082031 17.761719 19.257812 17.851562 19.378906 L 18.390625 19.761719 L 18.628906 19.941406 L 18.960938 20.238281 L 19.078125 20.414062 C 19.050781 20.472656 18.78125 20.621094 18.449219 20.710938 L 18.058594 20.859375 L 17.21875 21.15625 L 16.710938 21.246094 C 16.265625 21.394531 15.816406 21.523438 15.359375 21.628906 L 15.148438 21.6875 C 14.878906 21.75 14.941406 21.421875 14.851562 21.273438 C 14.761719 21.183594 14.730469 21.183594 14.429688 21.304688 L 13.859375 21.421875 L 13.410156 21.480469 L 12.808594 21.539062 C 12.480469 21.539062 12.089844 21.539062 11.761719 21.601562 C 11.640625 21.628906 11.671875 21.894531 11.609375 21.957031 C 11.519531 21.984375 10.949219 22.015625 10.738281 21.957031 Z M 7.679688 21.304688 C 7.378906 21.214844 7.171875 21.125 7.078125 21.007812 C 6.808594 20.800781 6.269531 20.265625 6.269531 20.238281 L 6.269531 20.179688 L 6.390625 20.179688 C 6.539062 20.179688 6.808594 20.117188 6.960938 20.058594 L 7.410156 19.613281 C 7.589844 19.082031 7.558594 18.488281 7.050781 18.164062 C 6.75 17.957031 6.539062 17.867188 6.269531 17.867188 L 6 17.808594 L 6 17.660156 L 6.03125 17.453125 C 6.058594 17.214844 6.449219 16.355469 6.570312 16.265625 C 6.78125 16.117188 7.261719 16.296875 7.410156 16.445312 L 7.710938 16.652344 C 8.101562 16.917969 8.308594 17.183594 8.519531 17.570312 C 8.609375 17.777344 8.730469 18.015625 8.730469 18.132812 C 8.820312 18.460938 8.910156 19.289062 8.851562 19.40625 C 8.820312 19.4375 8.789062 19.613281 8.789062 19.851562 C 8.730469 20.355469 8.640625 20.5625 8.429688 20.890625 C 8.28125 21.125 8.25 21.15625 8.101562 21.214844 C 7.890625 21.332031 7.769531 21.332031 7.679688 21.304688 Z M 4.980469 19.851562 C 4.769531 19.734375 4.648438 19.347656 4.859375 19.199219 C 5.070312 19.050781 5.339844 18.992188 5.609375 18.992188 L 5.910156 19.050781 C 6.058594 19.140625 6.089844 19.320312 6.089844 19.496094 L 6.03125 19.703125 C 5.96875 19.792969 5.878906 19.761719 5.671875 19.585938 L 5.429688 19.40625 L 5.371094 19.40625 L 5.371094 19.464844 L 5.339844 19.527344 L 5.339844 19.761719 L 5.308594 19.851562 C 5.28125 19.941406 5.128906 19.941406 4.980469 19.851562 Z M 6.300781 19.882812 C 6.179688 19.613281 6.328125 19.320312 6.148438 19.082031 C 6.058594 18.902344 5.910156 18.753906 5.851562 18.726562 C 5.640625 18.695312 5.609375 18.488281 5.761719 18.3125 C 5.878906 18.132812 6.058594 18.042969 6.269531 18.042969 C 6.480469 18.015625 6.628906 18.074219 6.929688 18.25 C 7.199219 18.429688 7.289062 18.546875 7.320312 18.84375 L 7.320312 19.289062 C 7.230469 19.585938 7.199219 19.644531 7.050781 19.734375 C 6.871094 19.851562 6.75 19.882812 6.539062 19.910156 Z M 15.871094 19.289062 L 15.808594 19.257812 L 15.808594 19.199219 C 15.808594 19.140625 15.871094 19.082031 15.898438 19.050781 C 16.078125 18.875 16.199219 18.816406 16.410156 18.695312 C 16.53125 18.667969 16.648438 18.605469 16.769531 18.667969 C 16.890625 18.695312 17.101562 18.902344 16.890625 18.992188 C 16.769531 19.035156 16.652344 19.074219 16.53125 19.109375 C 16.050781 19.289062 15.960938 19.320312 15.871094 19.289062 Z M 4.828125 18.636719 L 4.5 18.191406 L 4.050781 17.628906 L 3.691406 17.15625 C 3.480469 16.917969 3.390625 16.59375 3.148438 16.355469 C 2.851562 15.910156 2.609375 15.496094 2.550781 14.933594 C 2.519531 14.488281 3.148438 14.753906 3.300781 14.933594 C 3.847656 15.554688 4.257812 16.28125 4.5 17.066406 C 4.738281 17.6875 4.980469 18.488281 4.980469 18.636719 L 4.980469 18.726562 L 4.949219 18.726562 Z M 25.320312 17.511719 L 24.328125 16.800781 L 23.820312 16.386719 L 22.980469 15.703125 L 22.289062 15.140625 L 21.570312 14.605469 L 21.089844 14.28125 C 21.03125 14.191406 20.851562 14.074219 20.730469 13.984375 L 20.398438 13.71875 L 20.308594 13.628906 L 20.398438 13.421875 L 20.550781 13.035156 C 20.550781 12.949219 20.609375 12.828125 20.640625 12.800781 L 20.910156 12.742188 L 21.871094 12.5625 L 22.441406 12.472656 L 22.949219 12.355469 L 24 12.265625 C 24.660156 12.117188 24.628906 12.117188 24.570312 12.679688 L 24.570312 12.742188 L 24.75 12.800781 C 24.898438 12.859375 24.988281 12.859375 25.230469 12.828125 L 25.769531 12.769531 L 26.429688 12.679688 L 27 12.59375 L 27.269531 12.5625 C 27.328125 12.59375 27.511719 12.5625 27.691406 12.535156 C 28.078125 12.472656 28.019531 12.472656 28.679688 12.535156 C 29.398438 12.5625 29.789062 12.679688 29.820312 12.828125 L 29.820312 12.890625 L 29.761719 12.917969 C 29.699219 12.949219 29.308594 12.976562 28.171875 12.976562 L 26.519531 13.035156 C 26.398438 13.066406 26.070312 13.214844 26.160156 13.394531 C 26.191406 13.511719 26.339844 13.628906 26.398438 13.6875 L 26.941406 14.105469 L 27.359375 14.398438 L 27.898438 14.785156 L 28.5 15.230469 C 28.558594 15.257812 28.679688 15.378906 28.679688 15.464844 C 28.679688 15.527344 28.558594 15.675781 28.5 15.703125 C 28.230469 15.96875 27.871094 16.238281 27.539062 16.414062 C 27.328125 16.535156 26.910156 16.890625 26.609375 16.976562 L 26.339844 17.125 C 26.101562 17.304688 25.621094 17.660156 25.320312 17.511719 Z M 31.46875 16.414062 C 31.109375 16.296875 30.480469 15.96875 29.820312 15.554688 C 29.640625 15.464844 29.429688 15.378906 29.28125 15.230469 L 28.621094 14.753906 L 27.871094 14.25 L 27.71875 14.132812 L 27.570312 14.015625 L 26.789062 13.394531 L 26.609375 13.214844 L 26.640625 13.183594 C 26.640625 13.15625 26.671875 13.125 26.730469 13.125 L 26.96875 13.097656 L 29.429688 13.097656 C 29.761719 13.097656 29.878906 13.066406 30.210938 13.183594 L 30.570312 13.363281 C 30.75 13.511719 31.5 14.191406 31.679688 14.429688 L 32.101562 14.875 C 32.398438 15.140625 32.578125 15.40625 32.761719 15.792969 C 32.878906 16.058594 32.878906 16.117188 32.730469 16.265625 C 32.671875 16.355469 32.609375 16.386719 32.398438 16.445312 C 32.039062 16.535156 31.800781 16.535156 31.46875 16.414062 Z M 30.660156 16.355469 L 30.359375 16.179688 L 29.96875 15.96875 L 29.128906 15.496094 L 28.738281 15.230469 C 28.621094 15.171875 28.441406 15.050781 28.351562 14.933594 L 27.449219 14.28125 C 27.210938 14.105469 27.179688 14.164062 27 13.984375 L 26.640625 13.6875 C 26.429688 13.539062 26.398438 13.511719 26.398438 13.453125 L 26.398438 13.394531 L 26.460938 13.394531 C 26.488281 13.363281 26.640625 13.421875 26.789062 13.539062 L 26.941406 13.6875 C 27.210938 13.808594 27.359375 14.074219 27.628906 14.191406 L 28.050781 14.488281 C 28.261719 14.695312 28.621094 14.902344 28.859375 15.050781 C 29.730469 15.613281 29.699219 15.644531 30.601562 16.148438 C 30.808594 16.238281 30.960938 16.355469 30.960938 16.386719 L 30.960938 16.414062 L 30.871094 16.414062 Z M 7.621094 14.339844 C 7.410156 14.222656 7.199219 14.042969 6.78125 13.6875 C 6.511719 13.421875 6.390625 13.394531 6.121094 13.183594 L 5.488281 12.769531 L 5.191406 12.503906 L 4.828125 12.238281 C 4.769531 12.207031 4.558594 12.148438 4.558594 12.03125 C 4.320312 11.792969 3.839844 11.554688 3.839844 11.140625 L 3.839844 11.050781 L 3.871094 11.023438 C 4.019531 11.023438 4.140625 11.199219 4.230469 11.289062 C 4.789062 11.800781 5.390625 12.265625 6.03125 12.679688 L 6.539062 13.097656 L 6.960938 13.421875 C 7.46875 13.808594 7.949219 14.191406 7.980469 14.28125 L 8.039062 14.339844 L 8.011719 14.398438 C 7.949219 14.460938 7.859375 14.429688 7.621094 14.339844 Z M 8.128906 14.105469 L 7.800781 13.867188 L 7.320312 13.480469 L 6.929688 13.183594 L 6.660156 13.035156 L 6.480469 12.917969 C 6.449219 12.859375 6.210938 12.652344 6 12.535156 L 5.011719 11.703125 L 4.621094 11.378906 C 4.410156 11.257812 3.71875 10.667969 4.320312 10.546875 C 4.621094 10.460938 4.890625 10.398438 5.191406 10.371094 L 5.28125 10.429688 C 5.339844 10.519531 5.761719 11.320312 6 10.964844 C 6.03125 10.875 6.03125 10.875 5.910156 10.578125 C 5.851562 10.339844 5.820312 10.28125 5.851562 10.25 L 5.878906 10.191406 L 5.941406 10.222656 C 6.394531 10.507812 6.835938 10.8125 7.261719 11.140625 C 7.351562 11.171875 7.441406 11.289062 7.5 11.347656 C 7.914062 11.613281 8.304688 11.910156 8.671875 12.238281 C 8.96875 12.445312 9.390625 12.800781 9.480469 12.917969 C 9.570312 13.007812 9.660156 13.453125 9.601562 13.511719 C 9.570312 13.601562 9.421875 13.6875 9.359375 13.71875 L 8.910156 13.925781 C 8.699219 14.042969 8.398438 14.3125 8.128906 14.105469 Z M 9.75 13.480469 L 9.691406 13.332031 L 9.71875 13.15625 L 9.78125 13.125 L 9.839844 13.183594 C 9.898438 13.246094 9.929688 13.363281 9.839844 13.453125 C 9.808594 13.511719 9.75 13.539062 9.75 13.480469 Z M 19.890625 13.273438 L 19.648438 13.15625 C 19.621094 13.097656 19.558594 13.097656 19.5 13.097656 L 19.289062 13.097656 C 19.171875 13.035156 19.019531 13.066406 18.480469 13.097656 L 17.789062 13.097656 L 17.761719 13.066406 L 17.789062 13.007812 L 17.820312 12.949219 L 17.730469 12.859375 C 17.578125 12.710938 17.308594 12.621094 17.160156 12.710938 L 16.890625 12.710938 L 16.921875 12.828125 C 16.921875 12.949219 16.859375 13.007812 16.710938 13.097656 C 16.589844 13.15625 16.378906 13.097656 16.261719 13.066406 C 15.660156 12.859375 15.058594 12.5625 14.761719 12 C 14.640625 11.761719 14.640625 11.761719 14.640625 11.464844 C 14.671875 10.964844 14.761719 10.460938 14.789062 10.429688 C 14.851562 10.339844 14.941406 10.371094 15 10.460938 C 15.058594 10.519531 15.058594 10.667969 15 10.785156 C 15 10.875 15.121094 10.992188 15.269531 11.023438 C 15.390625 11.050781 15.390625 11.050781 15.480469 10.964844 C 15.628906 10.753906 15.988281 10.84375 16.171875 10.964844 C 16.410156 11.171875 16.769531 11.320312 17.011719 11.320312 C 17.398438 11.378906 17.699219 11.257812 18.121094 10.902344 C 18.300781 10.726562 18.328125 10.726562 18.480469 10.726562 C 18.628906 10.753906 18.691406 10.753906 18.78125 10.84375 C 19.050781 10.992188 19.078125 11.171875 19.171875 11.464844 C 19.261719 11.703125 19.289062 12 19.53125 12.117188 L 20.011719 12.265625 L 20.429688 12.386719 C 20.488281 12.445312 20.460938 12.535156 20.398438 12.828125 C 20.28125 13.214844 20.28125 13.273438 20.191406 13.304688 C 20.101562 13.363281 20.101562 13.363281 19.890625 13.273438 Z M 17.160156 13.15625 C 17.070312 13.097656 17.101562 13.035156 17.21875 12.890625 C 17.308594 12.769531 17.339844 12.769531 17.429688 12.769531 L 17.609375 12.828125 L 17.699219 12.890625 L 17.699219 12.917969 L 17.640625 13.007812 L 17.398438 13.15625 L 17.28125 13.183594 Z M 30.390625 13.066406 L 30.03125 12.742188 C 29.851562 12.59375 29.761719 12.535156 29.609375 12.472656 C 29.25 12.324219 28.859375 12.386719 28.46875 12.386719 C 28.140625 12.386719 27.75 12.265625 27.449219 12.414062 L 26.941406 12.472656 L 26.460938 12.503906 C 26.371094 12.5625 25.230469 12.621094 25.078125 12.59375 L 24.898438 12.5625 C 24.839844 12.503906 24.871094 12.324219 24.960938 12.179688 C 25.28125 11.523438 25.707031 10.921875 26.21875 10.398438 C 26.878906 9.304688 27.300781 8.890625 28.109375 8.503906 C 28.289062 8.414062 28.5 8.324219 28.621094 8.324219 C 28.890625 8.238281 29.21875 8.179688 29.488281 8.207031 C 29.941406 8.296875 30.300781 8.503906 30.71875 9.035156 C 30.871094 9.214844 30.988281 9.363281 31.019531 9.480469 L 31.140625 9.75 C 31.351562 10.074219 31.320312 10.519531 31.320312 10.875 C 31.320312 11.171875 31.320312 11.464844 31.261719 11.761719 L 31.199219 12.179688 C 31.199219 12.355469 31.019531 12.828125 30.960938 12.949219 C 30.898438 13.035156 30.75 13.15625 30.628906 13.183594 Z M 20.789062 12.503906 L 20.730469 12.445312 L 20.761719 12.355469 C 20.789062 12.324219 20.941406 12.207031 21.210938 12.089844 C 21.421875 11.96875 21.660156 11.851562 21.691406 11.792969 C 21.808594 11.703125 21.929688 11.527344 22.140625 11.230469 C 22.320312 10.992188 22.769531 10.429688 23.160156 10.636719 C 23.308594 10.726562 23.339844 10.84375 23.488281 10.964844 L 23.96875 11.4375 C 24.148438 11.585938 24.390625 11.851562 24.390625 11.910156 L 24.390625 11.96875 L 24.359375 12 C 24 12 23.640625 12 23.308594 12.148438 L 22.230469 12.324219 L 21.691406 12.414062 L 21.300781 12.472656 L 21.03125 12.535156 C 20.910156 12.5625 20.878906 12.5625 20.789062 12.503906 Z M 19.890625 12.117188 C 19.53125 12.03125 19.378906 11.882812 19.320312 11.554688 L 19.230469 11.171875 C 19.230469 11.109375 19.140625 10.933594 19.199219 10.875 C 19.230469 10.785156 19.378906 10.816406 19.441406 10.816406 C 19.769531 10.785156 20.039062 10.753906 20.339844 10.636719 L 20.578125 10.546875 L 20.640625 10.546875 L 20.640625 10.753906 C 20.578125 10.992188 20.429688 11.734375 20.910156 11.554688 C 21 11.527344 21.089844 11.527344 21.148438 11.464844 C 21.359375 11.347656 21.75 11.050781 21.898438 10.816406 C 22.199219 10.398438 22.378906 10.25 22.589844 10.191406 C 22.648438 10.132812 22.738281 10.105469 22.828125 10.105469 C 22.949219 10.105469 23.070312 10.191406 23.011719 10.3125 L 22.738281 10.488281 C 22.589844 10.546875 22.410156 10.667969 22.320312 10.753906 C 21.988281 11.023438 22.078125 11.050781 21.808594 11.378906 C 21.570312 11.675781 21.449219 11.761719 21.121094 11.941406 C 20.878906 12.089844 20.820312 12.089844 20.550781 12.117188 Z M 24.78125 11.644531 C 24.328125 11.378906 23.96875 11.050781 23.609375 10.695312 L 23.699219 10.519531 C 23.910156 10.28125 23.878906 10.105469 23.699219 9.894531 C 23.550781 9.6875 23.339844 9.777344 23.128906 9.835938 C 22.800781 9.957031 22.890625 9.660156 23.070312 9.539062 C 23.339844 9.394531 23.699219 9.394531 24 9.453125 C 24.328125 9.539062 24.988281 9.808594 25.171875 9.957031 L 25.5 10.191406 C 25.800781 10.339844 25.800781 10.429688 25.621094 10.785156 C 25.410156 11.171875 24.988281 11.703125 24.898438 11.703125 Z M 16.769531 11.082031 C 16.441406 10.964844 16.230469 10.84375 16.140625 10.695312 L 16.140625 10.398438 L 16.171875 10.371094 L 16.199219 10.398438 L 16.320312 10.546875 C 16.410156 10.667969 16.679688 10.816406 16.890625 10.875 C 16.949219 10.875 17.070312 10.875 17.191406 10.816406 C 17.429688 10.753906 17.640625 10.636719 17.789062 10.339844 C 17.941406 10.105469 17.96875 9.808594 17.789062 9.570312 C 17.699219 9.363281 17.488281 9.214844 17.21875 9.125 C 16.980469 9.035156 16.710938 9.066406 16.441406 9.15625 L 16.230469 9.304688 C 16.109375 9.394531 16.019531 9.71875 15.839844 9.480469 L 15.691406 9.363281 C 15.539062 9.304688 15.511719 9.214844 15.539062 9.066406 L 15.601562 8.769531 C 15.660156 8.503906 15.480469 8.238281 15.210938 8.117188 L 15.03125 8.058594 L 15 8.03125 L 15.058594 7.96875 L 15.300781 7.941406 C 15.601562 7.96875 15.871094 8.117188 16.199219 8.386719 C 16.441406 8.59375 16.441406 8.621094 16.828125 8.742188 L 17.398438 8.890625 C 17.609375 8.949219 17.820312 9.097656 18.058594 9.304688 C 18.328125 9.601562 18.480469 10.042969 18.238281 10.398438 C 18.089844 10.667969 17.761719 10.964844 17.550781 11.050781 C 17.308594 11.140625 16.980469 11.171875 16.769531 11.082031 Z M 15.210938 10.875 C 15.199219 10.867188 15.1875 10.855469 15.179688 10.84375 C 15.121094 10.753906 15.179688 10.667969 15.238281 10.605469 L 15.328125 10.546875 L 15.390625 10.605469 C 15.449219 10.667969 15.449219 10.785156 15.359375 10.875 C 15.300781 10.964844 15.269531 10.933594 15.210938 10.875 Z M 5.609375 10.695312 C 5.578125 10.578125 5.550781 10.578125 5.488281 10.488281 L 5.191406 9.925781 L 5.039062 9.601562 L 5.011719 9.539062 L 5.039062 9.511719 C 5.160156 9.480469 5.460938 9.777344 5.550781 10.042969 L 5.699219 10.460938 L 5.820312 10.785156 C 5.761719 10.84375 5.699219 10.816406 5.609375 10.695312 Z M 16.648438 10.546875 C 16.46875 10.429688 16.351562 10.3125 16.320312 10.164062 C 16.289062 9.867188 16.378906 9.511719 16.589844 9.363281 C 16.679688 9.304688 16.800781 9.304688 16.921875 9.304688 C 17.28125 9.332031 17.671875 9.480469 17.699219 9.894531 C 17.761719 10.164062 17.640625 10.371094 17.339844 10.546875 C 17.128906 10.636719 16.859375 10.695312 16.648438 10.546875 Z M 16.800781 10.105469 C 16.921875 10.015625 16.828125 9.835938 16.648438 9.835938 L 16.558594 9.835938 L 16.53125 9.894531 C 16.5 9.984375 16.558594 10.105469 16.621094 10.132812 C 16.710938 10.164062 16.738281 10.164062 16.800781 10.105469 Z M 18.871094 10.578125 C 18.808594 10.546875 18.539062 10.546875 18.480469 10.398438 C 18.449219 10.339844 18.449219 10.042969 18.570312 10.042969 L 18.75 10.105469 C 18.960938 10.191406 19.140625 10.191406 19.589844 10.164062 C 20.011719 10.132812 20.191406 10.074219 20.609375 9.894531 C 20.761719 9.835938 20.820312 9.808594 20.851562 9.835938 L 20.910156 9.867188 L 20.878906 9.925781 C 20.851562 10.074219 20.308594 10.460938 20.011719 10.546875 C 19.738281 10.636719 19.199219 10.667969 18.871094 10.578125 Z M 15.660156 10.546875 L 15.480469 10.460938 L 15.269531 10.339844 C 15.148438 10.28125 15.058594 10.222656 15.03125 10.105469 L 15.03125 10.015625 L 15.058594 9.925781 C 15.121094 9.777344 15.238281 9.835938 15.359375 9.894531 C 15.421875 9.957031 15.539062 9.984375 15.628906 10.015625 C 15.808594 10.042969 15.898438 10.132812 15.929688 10.28125 C 15.960938 10.460938 15.839844 10.578125 15.660156 10.546875 Z M 23.28125 10.105469 L 23.308594 10.015625 L 23.398438 9.984375 C 23.460938 9.984375 23.519531 9.984375 23.578125 10.042969 C 23.589844 10.0625 23.601562 10.082031 23.609375 10.105469 L 23.640625 10.164062 L 23.550781 10.25 L 23.460938 10.3125 L 23.339844 10.25 Z M 18.988281 10.015625 C 18.75 9.957031 18.660156 9.894531 18.480469 9.601562 C 18.359375 9.332031 18.089844 9.066406 17.851562 8.949219 L 17.339844 8.742188 L 16.828125 8.59375 L 16.621094 8.503906 C 16.53125 8.503906 16.140625 8.117188 16.050781 7.96875 L 16.019531 7.910156 L 16.109375 7.820312 C 16.5 7.347656 17.21875 7.230469 17.789062 7.230469 C 18.328125 7.199219 18.359375 7.199219 18.570312 7.257812 C 18.808594 7.320312 19.050781 7.4375 19.109375 7.496094 L 19.289062 7.527344 L 19.53125 7.644531 L 19.800781 7.820312 L 20.070312 8.03125 C 20.191406 8.179688 20.21875 8.238281 20.128906 8.386719 L 20.101562 8.472656 L 20.21875 8.621094 C 20.339844 8.742188 20.371094 8.800781 20.429688 8.976562 C 20.460938 9.097656 20.550781 9.363281 20.730469 9.273438 C 20.878906 9.246094 20.96875 9.421875 20.878906 9.570312 C 20.789062 9.660156 20.25 9.957031 20.070312 9.984375 C 19.828125 10.015625 19.140625 10.042969 18.988281 10.015625 Z M 15.511719 9.808594 C 15.421875 9.75 15.390625 9.660156 15.480469 9.601562 C 15.539062 9.511719 15.628906 9.539062 15.71875 9.601562 C 15.78125 9.6875 15.808594 9.71875 15.71875 9.777344 C 15.691406 9.835938 15.601562 9.835938 15.511719 9.808594 Z M 14.609375 9.332031 C 14.460938 9.183594 14.371094 8.949219 14.429688 8.769531 C 14.519531 8.535156 14.699219 8.355469 14.941406 8.296875 C 15.121094 8.265625 15.210938 8.265625 15.300781 8.386719 C 15.390625 8.472656 15.421875 8.890625 15.359375 9.035156 C 15.269531 9.246094 15.058594 9.453125 14.820312 9.421875 C 14.699219 9.421875 14.699219 9.394531 14.609375 9.332031 Z M 14.761719 9.125 L 14.820312 9.066406 C 14.878906 9.007812 14.878906 8.917969 14.851562 8.859375 C 14.820312 8.800781 14.761719 8.710938 14.671875 8.769531 C 14.609375 8.800781 14.550781 8.890625 14.578125 8.949219 L 14.640625 9.035156 C 14.671875 9.066406 14.699219 9.125 14.761719 9.125 Z M 20.671875 9.035156 C 20.609375 9.035156 20.609375 8.949219 20.640625 8.917969 C 20.699219 8.828125 20.761719 8.769531 20.851562 8.742188 L 20.941406 8.679688 L 20.941406 8.5625 L 20.761719 8.535156 L 20.488281 8.503906 L 20.429688 8.503906 L 20.429688 8.445312 C 20.460938 8.324219 20.609375 8.265625 20.730469 8.265625 C 20.910156 8.238281 21.210938 8.238281 21.269531 8.472656 L 21.269531 8.652344 C 21.210938 8.800781 20.878906 9.097656 20.730469 9.097656 Z M 17.398438 6.992188 C 17.339844 6.964844 17.371094 6.84375 17.429688 6.785156 C 17.488281 6.753906 17.609375 6.695312 17.640625 6.785156 C 17.65625 6.8125 17.667969 6.84375 17.671875 6.875 L 17.640625 6.992188 Z M 13.53125 24.800781 L 13.289062 24.621094 L 13.199219 24.503906 L 13.199219 24.324219 L 13.230469 24.148438 C 13.261719 24.058594 13.378906 23.96875 13.441406 23.910156 C 13.589844 23.820312 13.769531 23.734375 13.921875 23.820312 C 14.039062 23.851562 14.101562 23.96875 14.160156 24.058594 C 14.25 24.207031 14.25 24.355469 14.128906 24.5625 C 13.980469 24.890625 13.828125 24.949219 13.53125 24.800781 Z M 13.53125 24.800781 "/>
</g>
</svg>
