<?xml version="1.0" encoding="UTF-8"?>
<svg xmlns="http://www.w3.org/2000/svg" xmlns:xlink="http://www.w3.org/1999/xlink" width="36px" height="36px" viewBox="0 0 36 50" version="1.1">
<g id="surface1">
<path style="fill-rule:evenodd;fill:rgb(96.470588%,82.352942%,63.529414%);fill-opacity:1;stroke-width:3;stroke-linecap:round;stroke-linejoin:miter;stroke:rgb(0%,0%,0%);stroke-opacity:1;stroke-miterlimit:4;" d="M 10.643229 300.506172 C 11.384766 316.228047 27.13151 308.934844 34.241536 304.043594 C 41.046224 299.370703 43.009115 303.2575 43.576172 293.999062 C 43.96875 287.972344 44.666667 281.901953 44.361328 275.787891 C 34.110677 274.870781 22.98763 277.316406 14.61263 283.386797 C 10.294271 286.531172 2.18099 296.575703 10.643229 300.506172 " transform="matrix(0.0895522,0,0,0.0894454,0,0)"/>
<path style="fill-rule:evenodd;fill:rgb(77.64706%,69.411767%,59.607846%);fill-opacity:1;stroke-width:3;stroke-linecap:round;stroke-linejoin:miter;stroke:rgb(0%,0%,0%);stroke-opacity:1;stroke-miterlimit:4;" d="M 10.643229 300.506172 C 12.911458 299.632734 15.354167 299.021328 16.924479 296.96875 " transform="matrix(0.0895522,0,0,0.0894454,0,0)"/>
<path style="fill-rule:evenodd;fill:rgb(41.568628%,84.313726%,89.803922%);fill-opacity:1;stroke-width:3;stroke-linecap:round;stroke-linejoin:miter;stroke:rgb(0%,0%,0%);stroke-opacity:1;stroke-miterlimit:4;" d="M 46.978516 112.848125 C -13.304036 95.903437 31.537109 19.171953 79.955078 50.746719 Z M 46.978516 112.848125 " transform="matrix(0.0895522,0,0,0.0894454,0,0)"/>
<path style="fill-rule:evenodd;fill:rgb(41.568628%,84.313726%,89.803922%);fill-opacity:1;stroke-width:3;stroke-linecap:round;stroke-linejoin:miter;stroke:rgb(0%,0%,0%);stroke-opacity:1;stroke-miterlimit:4;" d="M 314.891276 44.982031 C 362.611328 11.442031 405.751302 87.081719 350.266927 106.122656 Z M 314.891276 44.982031 " transform="matrix(0.0895522,0,0,0.0894454,0,0)"/>
<path style="fill-rule:evenodd;fill:rgb(96.470588%,82.352942%,63.529414%);fill-opacity:1;stroke-width:3;stroke-linecap:round;stroke-linejoin:miter;stroke:rgb(0%,0%,0%);stroke-opacity:1;stroke-miterlimit:4;" d="M 325.141927 494.321953 C 337.268229 501.833516 359.427083 524.542891 341.23763 535.504531 C 323.789714 551.532109 314.01888 517.948437 298.664714 513.319219 C 305.251302 504.322812 313.626302 496.156172 325.141927 494.321953 Z M 325.141927 494.321953 " transform="matrix(0.0895522,0,0,0.0894454,0,0)"/>
<path style="fill:none;stroke-width:3;stroke-linecap:round;stroke-linejoin:miter;stroke:rgb(0%,0%,0%);stroke-opacity:1;stroke-miterlimit:4;" d="M 341.23763 535.504531 C 338.576823 530.176562 337.660807 523.887812 333.167969 519.564297 " transform="matrix(0.0895522,0,0,0.0894454,0,0)"/>
<path style="fill-rule:evenodd;fill:rgb(96.470588%,82.352942%,63.529414%);fill-opacity:1;stroke-width:3;stroke-linecap:round;stroke-linejoin:miter;stroke:rgb(0%,0%,0%);stroke-opacity:1;stroke-miterlimit:4;" d="M 108.569661 519.957344 C 94.349609 522.184609 86.323568 535.024141 74.458984 541.53125 C 63.292318 548.213047 59.017578 539.391328 58.014323 537.600781 C 56.269531 536.814687 56.400391 538.343203 53.695964 535.635547 C 43.358073 519.258594 64.513672 507.336172 75.505859 499.213203 C 90.860026 496.1125 100.5 509.38875 108.569661 519.957344 Z M 108.569661 519.957344 " transform="matrix(0.0895522,0,0,0.0894454,0,0)"/>
<path style="fill:none;stroke-width:3;stroke-linecap:round;stroke-linejoin:miter;stroke:rgb(0%,0%,0%);stroke-opacity:1;stroke-miterlimit:4;" d="M 58.014323 537.600781 C 58.58138 531.399375 63.510417 527.206875 65.865885 521.922578 " transform="matrix(0.0895522,0,0,0.0894454,0,0)"/>
<path style=" stroke:none;fill-rule:evenodd;fill:rgb(0%,0%,0%);fill-opacity:1;" d="M 4.433594 8.199219 C 3.722656 7.824219 3.199219 7.3125 3.632812 6.488281 C 4.039062 5.726562 4.789062 5.808594 5.5 6.1875 Z M 4.433594 8.199219 "/>
<path style=" stroke:none;fill-rule:evenodd;fill:rgb(0%,0%,0%);fill-opacity:1;" d="M 30.242188 7.484375 C 30.957031 7.105469 31.476562 6.597656 31.042969 5.773438 C 30.640625 5.011719 29.890625 5.09375 29.175781 5.46875 Z M 30.242188 7.484375 "/>
<path style="fill-rule:evenodd;fill:rgb(96.470588%,82.352942%,63.529414%);fill-opacity:1;stroke-width:3;stroke-linecap:round;stroke-linejoin:miter;stroke:rgb(0%,0%,0%);stroke-opacity:1;stroke-miterlimit:4;" d="M 392.490885 298.497266 C 391.705729 314.262812 375.958984 306.969609 368.848958 302.034688 C 362.087891 297.361797 360.125 301.248594 359.514323 292.033828 C 359.121745 285.963437 358.423828 279.893047 358.772786 273.822656 C 368.979818 272.861875 380.146484 275.3075 388.521484 281.421562 C 392.839844 284.522266 400.953125 294.566797 392.490885 298.497266 " transform="matrix(0.0895522,0,0,0.0894454,0,0)"/>
<path style="fill-rule:evenodd;fill:rgb(77.64706%,69.411767%,59.607846%);fill-opacity:1;stroke-width:3;stroke-linecap:round;stroke-linejoin:miter;stroke:rgb(0%,0%,0%);stroke-opacity:1;stroke-miterlimit:4;" d="M 392.490885 298.497266 C 390.179036 297.623828 387.736328 297.056094 386.209635 294.959844 " transform="matrix(0.0895522,0,0,0.0894454,0,0)"/>
<path style="fill-rule:evenodd;fill:rgb(41.568628%,84.313726%,89.803922%);fill-opacity:1;stroke-width:3;stroke-linecap:round;stroke-linejoin:miter;stroke:rgb(0%,0%,0%);stroke-opacity:1;stroke-miterlimit:4;" d="M 195.503906 13.145234 C 255.873698 13.145234 312.448568 21.748594 341.979167 79.744844 C 368.45638 144.772266 359.034505 214.865625 363.047526 283.561484 C 366.537109 342.562187 374.214193 410.690313 346.864583 465.3675 C 318.075521 522.883359 246.102865 537.33875 186.867188 535.2425 C 140.28125 533.582969 84.055339 518.385156 57.796224 475.84875 C 26.957031 425.931797 41.569661 351.733281 43.794271 296.226328 C 46.455078 230.456484 25.997396 164.468281 47.589193 100.139609 C 70.009766 33.365313 130.466797 18.254844 195.503906 13.145234 " transform="matrix(0.0895522,0,0,0.0894454,0,0)"/>
<path style="fill-rule:evenodd;fill:rgb(100%,100%,100%);fill-opacity:1;stroke-width:2.9081;stroke-linecap:round;stroke-linejoin:miter;stroke:rgb(0%,0%,0%);stroke-opacity:1;stroke-miterlimit:4;" d="M 206.190755 94.156562 C 217.008464 157.175078 319.994792 140.492422 305.207682 76.949844 C 291.947266 20.001719 202.570313 35.767266 206.190755 94.156562 " transform="matrix(0.0895522,0,0,0.0894454,0,0)"/>
<path style="fill-rule:evenodd;fill:rgb(100%,100%,100%);fill-opacity:1;stroke-width:2.8214;stroke-linecap:round;stroke-linejoin:miter;stroke:rgb(0%,0%,0%);stroke-opacity:1;stroke-miterlimit:4;" d="M 83.095703 104.332109 C 97.141276 159.183984 184.947917 145.165312 181.676432 90.13875 C 177.707031 24.237891 69.660807 36.946406 83.095703 104.332109 " transform="matrix(0.0895522,0,0,0.0894454,0,0)"/>
<path style="fill-rule:evenodd;fill:rgb(100%,100%,100%);fill-opacity:1;stroke-width:3;stroke-linecap:round;stroke-linejoin:miter;stroke:rgb(0%,0%,0%);stroke-opacity:1;stroke-miterlimit:4;" d="M 218.578776 169.752578 C 218.622396 177.962891 220.454427 187.133984 218.927734 195.868359 C 216.833984 199.798828 212.733724 200.235547 209.156901 201.851406 C 204.271484 201.065313 200.171224 197.833594 198.208333 193.291719 C 196.943359 183.334531 198.688151 173.683047 198.99349 163.769531 Z M 218.578776 169.752578 " transform="matrix(0.0895522,0,0,0.0894454,0,0)"/>
<path style=" stroke:none;fill-rule:evenodd;fill:rgb(0%,0%,0%);fill-opacity:1;" d="M 10.9375 8.535156 C 10.9375 7.738281 10.34375 7.097656 9.609375 7.097656 C 8.878906 7.097656 8.28125 7.738281 8.28125 8.535156 C 8.28125 9.328125 8.878906 9.96875 9.609375 9.96875 C 10.34375 9.96875 10.9375 9.328125 10.9375 8.535156 Z M 10.9375 8.535156 "/>
<path style=" stroke:none;fill-rule:evenodd;fill:rgb(100%,100%,100%);fill-opacity:1;" d="M 10.527344 8.859375 C 10.527344 8.65625 10.386719 8.492188 10.214844 8.492188 C 10.042969 8.492188 9.902344 8.65625 9.902344 8.859375 C 9.902344 9.058594 10.042969 9.222656 10.214844 9.222656 C 10.386719 9.222656 10.527344 9.058594 10.527344 8.859375 Z M 10.527344 8.859375 "/>
<path style=" stroke:none;fill-rule:evenodd;fill:rgb(0%,0%,0%);fill-opacity:1;" d="M 22.042969 8.175781 C 22.042969 7.382812 21.457031 6.738281 20.738281 6.738281 C 20.015625 6.738281 19.433594 7.382812 19.433594 8.175781 C 19.433594 8.96875 20.015625 9.613281 20.738281 9.613281 C 21.457031 9.613281 22.042969 8.96875 22.042969 8.175781 Z M 22.042969 8.175781 "/>
<path style=" stroke:none;fill-rule:evenodd;fill:rgb(100%,100%,100%);fill-opacity:1;" d="M 21.640625 8.5 C 21.640625 8.296875 21.5 8.136719 21.332031 8.136719 C 21.160156 8.136719 21.023438 8.296875 21.023438 8.5 C 21.023438 8.703125 21.160156 8.863281 21.332031 8.863281 C 21.5 8.863281 21.640625 8.703125 21.640625 8.5 Z M 21.640625 8.5 "/>
<path style="fill-rule:evenodd;fill:rgb(100%,100%,100%);fill-opacity:1;stroke-width:3;stroke-linecap:round;stroke-linejoin:miter;stroke:rgb(0%,0%,0%);stroke-opacity:1;stroke-miterlimit:4;" d="M 176.223958 168.879141 C 169.768229 184.557344 179.844401 215.91375 197.379557 192.767656 C 196.114583 182.810469 197.859375 173.202656 198.164714 163.245469 Z M 176.223958 168.879141 " transform="matrix(0.0895522,0,0,0.0894454,0,0)"/>
<path style="fill-rule:evenodd;fill:rgb(96.470588%,82.352942%,63.529414%);fill-opacity:1;stroke-width:3;stroke-linecap:round;stroke-linejoin:miter;stroke:rgb(13.725491%,12.156863%,12.54902%);stroke-opacity:1;stroke-miterlimit:4;" d="M 178.448568 138.658203 C 166.365885 139.706328 156.507813 154.030703 162.789063 165.385391 C 171.076823 180.408516 189.615234 164.031563 201.174479 165.60375 C 214.434896 165.865781 225.339844 179.622422 235.983073 168.093047 C 247.891276 155.209844 230.879557 142.719687 217.619141 137.086016 Z M 178.448568 138.658203 " transform="matrix(0.0895522,0,0,0.0894454,0,0)"/>
<path style=" stroke:none;fill-rule:evenodd;fill:rgb(0%,0%,0%);fill-opacity:1;" d="M 15.84375 12.347656 C 15.761719 10.480469 19.328125 10.246094 19.75 11.808594 C 20.171875 13.371094 16.019531 13.730469 15.84375 12.347656 C 15.703125 11.242188 15.84375 12.347656 15.84375 12.347656 Z M 15.84375 12.347656 "/>
</g>
</svg>
