<?xml version="1.0" encoding="UTF-8"?>
<svg xmlns="http://www.w3.org/2000/svg" xmlns:xlink="http://www.w3.org/1999/xlink" width="36px" height="36px" viewBox="0 0 36 22" version="1.1">
<g id="surface1">
<path style=" stroke:none;fill-rule:nonzero;fill:rgb(3.921569%,3.921569%,3.921569%);fill-opacity:1;" d="M 8.441406 21.1875 C 8.425781 20.382812 8.414062 20.023438 8.386719 19.488281 C 8.371094 19.230469 8.371094 19.214844 8.328125 19.246094 C 8.300781 19.261719 8.183594 19.359375 8.058594 19.457031 C 7.671875 19.761719 7.429688 19.851562 6.867188 19.886719 C 6.546875 19.910156 6.433594 19.9375 6.0625 20.109375 C 5.875 20.191406 5.671875 20.273438 5.613281 20.289062 C 5.535156 20.308594 5.222656 20.3125 4.484375 20.300781 L 3.460938 20.285156 L 3.21875 20.382812 C 2.757812 20.570312 2.417969 20.648438 2.175781 20.621094 C 1.949219 20.589844 1.636719 20.511719 1.511719 20.449219 C 1.222656 20.308594 0.929688 20.003906 0.535156 19.425781 C 0.0390625 18.703125 -0.0820312 18.398438 0.0546875 18.230469 C 0.0820312 18.191406 0.175781 18.128906 0.261719 18.089844 C 0.546875 17.953125 0.5625 17.933594 0.617188 17.671875 C 0.648438 17.523438 0.800781 17.464844 0.949219 17.542969 C 1.042969 17.589844 1.1875 17.738281 1.289062 17.898438 C 1.398438 18.070312 1.402344 18.082031 1.460938 18.398438 C 1.53125 18.777344 1.675781 19.347656 1.734375 19.472656 C 1.777344 19.570312 1.792969 19.582031 1.925781 19.621094 C 2.140625 19.679688 2.519531 19.660156 2.753906 19.570312 C 2.851562 19.535156 3.0625 19.472656 3.21875 19.433594 C 3.5 19.363281 3.535156 19.359375 4.136719 19.351562 C 5.019531 19.339844 5.515625 19.261719 5.710938 19.105469 C 5.886719 18.960938 6.414062 17.734375 6.601562 17.035156 C 6.730469 16.550781 6.746094 16.277344 6.65625 15.898438 C 6.523438 15.328125 6.320312 14 6.296875 13.539062 C 6.28125 13.257812 6.320312 12.96875 6.449219 12.417969 L 6.503906 12.171875 L 6.375 12.046875 C 6.21875 11.894531 6.089844 11.675781 6.011719 11.441406 C 5.9375 11.207031 5.917969 10.753906 5.972656 10.5 C 5.996094 10.402344 6.011719 10.320312 6.003906 10.316406 C 6.003906 10.3125 5.925781 10.261719 5.835938 10.203125 C 5.28125 9.824219 5.003906 9.3125 5 8.667969 C 4.996094 8.335938 5.03125 8.113281 5.148438 7.765625 C 5.261719 7.410156 5.417969 7.164062 5.683594 6.910156 C 5.9375 6.664062 6.136719 6.546875 6.457031 6.445312 C 6.789062 6.34375 6.980469 6.316406 7.421875 6.316406 L 7.8125 6.316406 L 7.871094 6.046875 C 7.957031 5.648438 8.089844 5.242188 8.214844 4.984375 C 8.40625 4.609375 8.730469 4.328125 9.351562 4.011719 C 9.566406 3.90625 9.667969 3.832031 9.835938 3.675781 C 9.96875 3.550781 10.203125 3.378906 10.453125 3.214844 C 10.914062 2.921875 11.351562 2.5625 11.640625 2.253906 C 11.925781 1.945312 12.007812 1.871094 12.316406 1.675781 C 12.789062 1.371094 13.699219 0.898438 14.304688 0.648438 C 14.671875 0.492188 14.882812 0.445312 15.875 0.285156 C 16.335938 0.207031 16.859375 0.113281 17.03125 0.078125 C 17.339844 0.015625 17.367188 0.0117188 18.203125 0.0117188 C 19.105469 0.0117188 19.488281 0.0351562 20.277344 0.136719 C 20.808594 0.207031 21.148438 0.285156 21.382812 0.386719 C 21.558594 0.464844 22.25 0.710938 22.945312 0.941406 C 24.042969 1.308594 24.378906 1.425781 24.515625 1.496094 C 24.871094 1.667969 25.425781 2.097656 26.277344 2.867188 C 26.785156 3.328125 26.832031 3.363281 27.355469 3.710938 C 28.167969 4.25 28.246094 4.351562 28.582031 5.359375 C 28.890625 6.292969 28.859375 6.214844 28.945312 6.210938 C 29.085938 6.203125 29.566406 6.25 29.734375 6.289062 C 29.824219 6.308594 30.015625 6.382812 30.15625 6.449219 C 30.703125 6.710938 31.042969 7.152344 31.242188 7.859375 C 31.292969 8.058594 31.304688 8.148438 31.304688 8.449219 C 31.308594 8.777344 31.304688 8.820312 31.234375 9.015625 C 31.121094 9.359375 30.875 9.679688 30.589844 9.867188 L 30.464844 9.949219 L 30.484375 10.195312 C 30.515625 10.59375 30.503906 11.148438 30.457031 11.375 C 30.410156 11.59375 30.300781 11.847656 30.222656 11.925781 C 30.183594 11.96875 30.179688 12.003906 30.183594 12.175781 C 30.195312 12.371094 30.144531 12.832031 30.074219 13.167969 C 30.042969 13.339844 30.042969 13.347656 30.101562 13.441406 C 30.132812 13.496094 30.230469 13.617188 30.316406 13.710938 C 30.398438 13.804688 30.492188 13.921875 30.519531 13.972656 C 30.65625 14.226562 30.734375 14.839844 30.707031 15.4375 C 30.675781 16.15625 30.585938 16.4375 30.039062 17.546875 C 29.820312 17.988281 29.75 18.171875 29.769531 18.273438 C 29.792969 18.378906 29.90625 18.535156 30.039062 18.644531 C 30.207031 18.78125 30.765625 19.136719 31.066406 19.300781 C 31.261719 19.40625 31.390625 19.503906 31.582031 19.679688 C 31.914062 19.984375 32.054688 20.054688 32.289062 20.054688 C 32.605469 20.054688 32.785156 19.925781 33.003906 19.542969 C 33.195312 19.210938 33.28125 19.105469 33.679688 18.703125 C 34.066406 18.3125 34.273438 18.152344 34.566406 18.007812 C 35.0625 17.761719 35.515625 17.765625 35.804688 18.015625 C 35.945312 18.140625 36 18.238281 36 18.382812 C 36 18.519531 35.96875 18.589844 35.84375 18.71875 C 35.636719 18.9375 35.289062 19.121094 34.730469 19.3125 C 34.386719 19.429688 34.273438 19.5 33.980469 19.777344 L 33.714844 20.035156 L 33.613281 20.347656 C 33.558594 20.519531 33.480469 20.703125 33.4375 20.761719 C 33.265625 21 32.828125 21.339844 32.644531 21.375 C 32.582031 21.386719 32.5 21.371094 32.316406 21.304688 C 32.019531 21.203125 31.789062 21.152344 31.429688 21.125 C 30.972656 21.082031 30.632812 20.9375 29.757812 20.40625 C 29.332031 20.148438 29.054688 19.996094 29.019531 19.996094 C 29.011719 19.996094 29.011719 20.351562 29.019531 20.785156 C 29.03125 21.21875 29.03125 21.667969 29.019531 21.789062 L 29 22 L 8.460938 22 Z M 8.441406 21.1875 "/>
<path style=" stroke:none;fill-rule:nonzero;fill:rgb(99.607843%,99.607843%,99.607843%);fill-opacity:1;" d="M 8.753906 21.359375 C 8.753906 21.007812 8.738281 20.3125 8.71875 19.816406 L 8.683594 18.910156 L 8.773438 18.839844 C 9.113281 18.570312 9.347656 18.289062 9.574219 17.867188 C 9.738281 17.550781 9.746094 17.484375 9.644531 16.992188 C 9.519531 16.386719 9.550781 16.023438 9.792969 15.140625 C 9.832031 14.984375 9.875 14.832031 9.882812 14.804688 C 9.886719 14.773438 9.902344 14.75 9.910156 14.75 C 9.917969 14.75 10.046875 14.808594 10.191406 14.878906 C 10.5 15.039062 10.878906 15.167969 11.230469 15.242188 C 11.433594 15.28125 11.574219 15.292969 11.925781 15.296875 C 12.84375 15.296875 13.71875 15.09375 14.527344 14.695312 C 14.785156 14.566406 15.277344 14.257812 15.3125 14.203125 C 15.324219 14.1875 15.34375 14.265625 15.359375 14.375 C 15.429688 14.847656 15.6875 15.109375 16.167969 15.195312 L 16.339844 15.226562 L 16.332031 15.410156 C 16.328125 15.511719 16.316406 15.808594 16.300781 16.078125 C 16.265625 16.859375 16.265625 16.988281 16.335938 17.132812 C 16.503906 17.476562 16.941406 17.664062 17.367188 17.582031 C 17.558594 17.542969 17.871094 17.386719 18.027344 17.253906 L 18.152344 17.148438 L 18.261719 17.230469 C 18.503906 17.410156 18.878906 17.539062 19.167969 17.535156 C 19.570312 17.535156 19.902344 17.28125 20.019531 16.890625 C 20.074219 16.6875 20.089844 16.027344 20.039062 15.589844 C 20.019531 15.386719 20 15.207031 20 15.191406 C 20 15.175781 20.03125 15.164062 20.070312 15.164062 C 20.1875 15.164062 20.464844 15.097656 20.585938 15.042969 C 20.867188 14.910156 21.070312 14.628906 21.132812 14.277344 C 21.152344 14.179688 21.167969 14.097656 21.171875 14.09375 C 21.175781 14.089844 21.242188 14.125 21.324219 14.175781 C 21.726562 14.425781 22.386719 14.679688 22.96875 14.808594 C 23.507812 14.925781 23.796875 14.953125 24.402344 14.953125 C 25.027344 14.957031 25.25 14.925781 25.707031 14.769531 C 26.25 14.585938 26.945312 14.164062 27.292969 13.808594 C 27.339844 13.761719 27.390625 13.722656 27.398438 13.722656 C 27.410156 13.722656 27.425781 13.835938 27.429688 13.972656 C 27.480469 14.675781 27.5625 15.0625 27.75 15.417969 C 27.949219 15.8125 27.984375 15.964844 27.984375 16.53125 L 27.988281 17.007812 L 27.859375 17.433594 C 27.679688 18.023438 27.617188 18.324219 27.613281 18.617188 C 27.609375 18.832031 27.617188 18.878906 27.671875 18.96875 C 27.792969 19.191406 28.117188 19.46875 28.519531 19.703125 L 28.703125 19.808594 L 28.710938 20.875 L 28.71875 21.9375 L 28.71875 22.304688 C 28.832031 22.324219 26.554688 22.382812 18.886719 22.386719 L 8.753906 22.324219 Z M 8.753906 21.359375 "/>
<path style=" stroke:none;fill-rule:nonzero;fill:rgb(99.607843%,99.607843%,99.607843%);fill-opacity:1;" d="M 32.414062 21.09375 C 32.179688 21.003906 31.828125 20.929688 31.523438 20.902344 C 31.042969 20.863281 30.757812 20.742188 29.871094 20.203125 C 29.613281 20.050781 29.238281 19.835938 29.027344 19.730469 C 28.359375 19.382812 28.003906 19.121094 27.882812 18.882812 C 27.820312 18.761719 27.820312 18.734375 27.832031 18.558594 C 27.851562 18.316406 27.941406 17.914062 28.09375 17.410156 C 28.195312 17.0625 28.207031 17 28.21875 16.683594 C 28.242188 16.117188 28.15625 15.691406 27.945312 15.320312 C 27.773438 15.011719 27.683594 14.558594 27.65625 13.867188 L 27.644531 13.464844 L 27.789062 13.296875 C 28.03125 13.007812 28.261719 12.644531 28.398438 12.335938 L 28.457031 12.207031 L 28.574219 12.226562 C 28.640625 12.234375 28.871094 12.242188 29.09375 12.242188 C 29.480469 12.238281 29.695312 12.207031 29.921875 12.121094 C 29.96875 12.105469 29.96875 12.113281 29.953125 12.320312 C 29.945312 12.441406 29.90625 12.71875 29.871094 12.941406 C 29.835938 13.160156 29.8125 13.375 29.820312 13.414062 C 29.839844 13.496094 29.945312 13.652344 30.144531 13.875 C 30.230469 13.96875 30.316406 14.101562 30.34375 14.167969 C 30.425781 14.371094 30.464844 14.726562 30.464844 15.210938 C 30.464844 16.042969 30.414062 16.226562 29.847656 17.398438 C 29.707031 17.691406 29.578125 17.976562 29.5625 18.03125 C 29.472656 18.359375 29.605469 18.625 30.019531 18.921875 C 30.277344 19.105469 30.699219 19.371094 30.992188 19.527344 C 31.109375 19.589844 31.289062 19.726562 31.457031 19.875 C 31.613281 20.019531 31.796875 20.15625 31.882812 20.199219 C 32.027344 20.273438 32.054688 20.277344 32.289062 20.277344 C 32.511719 20.277344 32.554688 20.269531 32.683594 20.210938 C 32.871094 20.121094 33.070312 19.90625 33.21875 19.644531 C 33.285156 19.527344 33.378906 19.382812 33.429688 19.316406 C 33.542969 19.171875 34.132812 18.566406 34.144531 18.582031 C 34.152344 18.589844 34.203125 18.726562 34.257812 18.894531 L 34.363281 19.191406 L 34.21875 19.28125 C 34.039062 19.390625 33.570312 19.835938 33.507812 19.949219 C 33.488281 19.996094 33.429688 20.144531 33.390625 20.277344 C 33.296875 20.558594 33.207031 20.707031 33.023438 20.867188 C 32.863281 21.007812 32.648438 21.144531 32.585938 21.144531 C 32.5625 21.144531 32.484375 21.121094 32.414062 21.09375 Z M 1.949219 20.347656 C 1.6875 20.296875 1.527344 20.210938 1.339844 20.042969 C 1.144531 19.859375 0.953125 19.621094 0.679688 19.210938 C 0.476562 18.914062 0.226562 18.460938 0.226562 18.394531 C 0.226562 18.378906 0.316406 18.320312 0.421875 18.265625 C 0.6875 18.136719 0.792969 18.015625 0.835938 17.789062 C 0.84375 17.746094 0.859375 17.753906 0.949219 17.847656 C 1.113281 18.019531 1.167969 18.148438 1.246094 18.519531 C 1.382812 19.222656 1.507812 19.625 1.617188 19.726562 C 1.820312 19.910156 2.414062 19.9375 2.84375 19.789062 C 3.34375 19.613281 3.402344 19.601562 4.175781 19.582031 C 5.351562 19.550781 5.785156 19.449219 5.980469 19.148438 C 6.265625 18.722656 6.777344 17.417969 6.894531 16.832031 C 6.964844 16.453125 6.957031 16.121094 6.847656 15.640625 C 6.6875 14.902344 6.503906 13.554688 6.527344 13.296875 C 6.542969 13.144531 6.703125 12.308594 6.722656 12.292969 C 6.726562 12.289062 6.824219 12.320312 6.945312 12.359375 C 7.214844 12.445312 7.480469 12.484375 7.714844 12.472656 C 7.835938 12.46875 7.898438 12.472656 7.898438 12.492188 C 7.898438 12.507812 7.949219 12.617188 8.011719 12.742188 C 8.328125 13.375 9 14.128906 9.59375 14.527344 C 9.683594 14.585938 9.710938 14.617188 9.699219 14.644531 C 9.664062 14.730469 9.460938 15.527344 9.402344 15.785156 C 9.324219 16.164062 9.328125 16.554688 9.417969 16.992188 C 9.507812 17.4375 9.503906 17.515625 9.394531 17.734375 C 9.277344 17.964844 9.0625 18.273438 8.925781 18.410156 C 8.867188 18.472656 8.648438 18.664062 8.441406 18.839844 C 7.585938 19.566406 7.507812 19.605469 6.878906 19.65625 C 6.453125 19.6875 6.34375 19.71875 5.949219 19.90625 L 5.621094 20.058594 L 4.503906 20.0625 L 3.382812 20.066406 L 3.070312 20.1875 C 2.542969 20.394531 2.328125 20.425781 1.949219 20.347656 Z M 34.605469 19.1875 C 34.511719 18.941406 34.492188 18.863281 34.519531 18.847656 C 34.570312 18.820312 34.585938 18.839844 34.628906 18.992188 C 34.652344 19.066406 34.675781 19.152344 34.683594 19.175781 C 34.695312 19.222656 34.621094 19.234375 34.605469 19.1875 Z M 34.734375 19.109375 C 34.722656 19.085938 34.765625 19.058594 34.875 19.019531 C 35.113281 18.9375 35.472656 18.757812 35.59375 18.664062 C 35.773438 18.519531 35.8125 18.390625 35.722656 18.246094 C 35.578125 18.015625 35.113281 18.007812 34.625 18.226562 C 34.40625 18.324219 34.355469 18.296875 34.546875 18.191406 C 34.84375 18.023438 35.1875 17.945312 35.410156 17.992188 C 35.644531 18.042969 35.847656 18.21875 35.847656 18.371094 C 35.847656 18.582031 35.558594 18.8125 35.011719 19.039062 C 34.875 19.097656 34.761719 19.144531 34.757812 19.144531 C 34.753906 19.144531 34.742188 19.128906 34.734375 19.109375 Z M 34.734375 19.109375 "/>
<path style=" stroke:none;fill-rule:nonzero;fill:rgb(99.607843%,99.607843%,99.607843%);fill-opacity:1;" d="M 34.671875 18.90625 C 34.644531 18.816406 34.648438 18.777344 34.695312 18.777344 C 34.738281 18.777344 35.152344 18.585938 35.199219 18.539062 C 35.261719 18.488281 35.257812 18.414062 35.1875 18.398438 C 35.128906 18.382812 34.9375 18.433594 34.695312 18.53125 L 34.5625 18.582031 L 34.519531 18.480469 L 34.472656 18.375 L 34.589844 18.316406 C 34.773438 18.222656 35.042969 18.140625 35.21875 18.128906 C 35.355469 18.113281 35.410156 18.121094 35.503906 18.160156 C 35.632812 18.21875 35.730469 18.34375 35.707031 18.421875 C 35.683594 18.511719 35.453125 18.695312 35.242188 18.796875 C 35.019531 18.898438 34.773438 18.996094 34.726562 18.996094 C 34.710938 18.996094 34.6875 18.957031 34.671875 18.90625 Z M 34.671875 18.90625 "/>
<path style=" stroke:none;fill-rule:nonzero;fill:rgb(99.607843%,99.607843%,99.607843%);fill-opacity:1;" d="M 34.457031 18.785156 C 34.398438 18.726562 34.574219 18.628906 34.941406 18.507812 C 35.246094 18.410156 35.238281 18.472656 34.925781 18.613281 C 34.652344 18.734375 34.472656 18.800781 34.457031 18.785156 Z M 34.355469 18.472656 C 34.277344 18.238281 34.316406 18.207031 34.414062 18.421875 C 34.5 18.605469 34.503906 18.621094 34.457031 18.636719 C 34.425781 18.648438 34.402344 18.605469 34.355469 18.472656 Z M 16.914062 17.273438 C 16.789062 17.230469 16.609375 17.066406 16.585938 16.972656 C 16.570312 16.910156 16.617188 15.5 16.644531 15.320312 L 16.660156 15.21875 L 16.804688 15.203125 C 16.886719 15.191406 17.015625 15.167969 17.085938 15.148438 C 17.496094 15.039062 17.691406 14.996094 17.859375 14.980469 L 18.042969 14.964844 L 18.035156 15.90625 L 18.023438 16.851562 L 17.875 16.988281 C 17.582031 17.253906 17.1875 17.371094 16.914062 17.273438 Z M 18.972656 17.226562 C 18.765625 17.183594 18.527344 17.074219 18.414062 16.96875 L 18.320312 16.882812 L 18.332031 15.921875 L 18.347656 14.960938 L 18.542969 14.976562 C 18.789062 14.996094 19.652344 15.136719 19.679688 15.160156 C 19.6875 15.167969 19.714844 15.355469 19.734375 15.578125 C 19.789062 16.078125 19.777344 16.675781 19.714844 16.851562 C 19.597656 17.15625 19.320312 17.300781 18.972656 17.226562 Z M 11.417969 15.054688 C 10.320312 14.886719 9.210938 14.140625 8.480469 13.089844 C 8.066406 12.496094 7.976562 12.195312 7.957031 11.328125 C 7.941406 10.714844 7.96875 10.371094 8.0625 9.902344 C 8.351562 8.503906 9.039062 7.433594 10.109375 6.738281 C 11.34375 5.929688 13.449219 5.421875 16.363281 5.226562 C 17.164062 5.171875 19.078125 5.144531 19.910156 5.175781 C 23.386719 5.296875 25.511719 5.832031 26.703125 6.886719 C 27.542969 7.636719 28.089844 8.652344 28.300781 9.851562 C 28.453125 10.710938 28.402344 11.765625 28.183594 12.265625 C 28.09375 12.476562 27.882812 12.820312 27.710938 13.039062 C 27.035156 13.886719 26.21875 14.433594 25.269531 14.667969 C 25.007812 14.734375 24.964844 14.734375 24.414062 14.734375 C 23.695312 14.734375 23.296875 14.683594 22.644531 14.5 C 22.167969 14.367188 21.65625 14.140625 21.320312 13.914062 C 21.160156 13.808594 21.140625 13.785156 21.09375 13.65625 C 20.964844 13.285156 20.546875 12.929688 19.964844 12.707031 L 19.761719 12.625 L 19.734375 12.507812 C 19.703125 12.367188 19.632812 12.265625 19.5 12.164062 C 19.0625 11.828125 18.191406 11.722656 17.496094 11.921875 C 16.984375 12.066406 16.6875 12.363281 16.753906 12.65625 L 16.773438 12.738281 L 16.554688 12.832031 C 16.089844 13.035156 15.675781 13.375 15.5 13.691406 C 15.4375 13.8125 15.375 13.882812 15.226562 13.996094 C 14.730469 14.378906 14.144531 14.671875 13.503906 14.859375 C 12.816406 15.0625 11.976562 15.136719 11.417969 15.054688 Z M 13.523438 13.808594 C 14.269531 13.683594 14.988281 13.390625 15.550781 12.984375 C 15.832031 12.785156 16.316406 12.363281 16.484375 12.175781 C 16.914062 11.695312 17.175781 11.203125 17.3125 10.597656 C 17.390625 10.261719 17.394531 9.628906 17.324219 9.296875 C 17.097656 8.199219 16.371094 7.296875 15.316406 6.816406 C 14.328125 6.359375 13.3125 6.328125 12.203125 6.722656 C 10.535156 7.308594 9.453125 8.328125 9.121094 9.621094 C 9.027344 9.980469 9 10.210938 9 10.621094 C 9.003906 11.035156 9.042969 11.304688 9.144531 11.621094 C 9.484375 12.664062 10.386719 13.4375 11.597656 13.734375 C 11.804688 13.785156 11.910156 13.804688 12.289062 13.855469 C 12.441406 13.875 13.328125 13.84375 13.523438 13.808594 Z M 23.910156 13.355469 C 24.867188 13.265625 25.6875 12.929688 26.265625 12.390625 C 26.726562 11.957031 27.007812 11.425781 27.113281 10.78125 C 27.171875 10.402344 27.148438 9.589844 27.058594 9.1875 C 26.695312 7.523438 25.429688 6.5 23.347656 6.191406 C 22.980469 6.136719 22.128906 6.113281 21.859375 6.152344 C 20.675781 6.316406 19.683594 6.957031 19.109375 7.929688 C 18.78125 8.484375 18.648438 9.015625 18.675781 9.714844 C 18.6875 10.160156 18.742188 10.429688 18.894531 10.804688 C 19.132812 11.402344 19.59375 11.976562 20.144531 12.359375 C 20.40625 12.542969 21.023438 12.867188 21.359375 12.996094 C 22.179688 13.308594 23.074219 13.433594 23.910156 13.355469 Z M 23.910156 13.355469 "/>
<path style=" stroke:none;fill-rule:nonzero;fill:rgb(99.607843%,99.607843%,99.607843%);fill-opacity:1;" d="M 12.082031 13.609375 C 11.464844 13.523438 10.859375 13.289062 10.390625 12.957031 C 10.027344 12.703125 9.625 12.214844 9.460938 11.828125 C 9.164062 11.136719 9.136719 10.265625 9.390625 9.5 C 9.566406 8.953125 9.828125 8.550781 10.285156 8.105469 C 10.558594 7.84375 10.84375 7.613281 10.84375 7.648438 C 10.84375 7.65625 10.800781 7.710938 10.75 7.769531 C 10.507812 8.046875 10.265625 8.46875 10.144531 8.832031 C 10 9.242188 9.976562 9.414062 9.976562 9.9375 C 9.976562 10.351562 9.984375 10.441406 10.035156 10.644531 C 10.210938 11.339844 10.554688 11.914062 11.074219 12.390625 C 11.742188 13 12.574219 13.335938 13.507812 13.375 C 13.839844 13.386719 14.265625 13.359375 14.378906 13.316406 C 14.398438 13.308594 14.414062 13.316406 14.414062 13.328125 C 14.414062 13.355469 14.050781 13.476562 13.773438 13.539062 C 13.28125 13.648438 12.570312 13.679688 12.082031 13.609375 Z M 12.082031 13.609375 "/>
<path style=" stroke:none;fill-rule:nonzero;fill:rgb(99.607843%,99.607843%,99.607843%);fill-opacity:1;" d="M 13.269531 13.074219 C 12.835938 13.011719 12.519531 12.921875 12.179688 12.769531 C 11.175781 12.3125 10.476562 11.4375 10.300781 10.414062 C 10.238281 10.066406 10.261719 9.503906 10.351562 9.179688 C 10.511719 8.585938 10.773438 8.148438 11.21875 7.714844 C 12.074219 6.882812 13.339844 6.554688 14.539062 6.847656 C 15.820312 7.167969 16.78125 8.132812 17.035156 9.363281 C 17.085938 9.617188 17.078125 10.261719 17.019531 10.519531 C 16.886719 11.132812 16.585938 11.667969 16.125 12.109375 C 15.652344 12.574219 15.058594 12.878906 14.363281 13.027344 C 14.179688 13.066406 13.4375 13.097656 13.269531 13.074219 Z M 16.054688 11.054688 C 16.355469 10.910156 16.582031 10.644531 16.664062 10.339844 C 16.835938 9.703125 16.410156 9.070312 15.730469 8.957031 C 15.1875 8.867188 14.640625 9.195312 14.464844 9.714844 C 14.417969 9.863281 14.410156 9.925781 14.421875 10.125 C 14.433594 10.328125 14.445312 10.375 14.527344 10.535156 C 14.675781 10.828125 14.90625 11.023438 15.234375 11.125 C 15.296875 11.148438 15.429688 11.15625 15.601562 11.152344 C 15.847656 11.148438 15.875 11.140625 16.054688 11.054688 Z M 16.054688 11.054688 "/>
<path style=" stroke:none;fill-rule:nonzero;fill:rgb(99.607843%,99.607843%,99.607843%);fill-opacity:1;" d="M 15.792969 10.460938 C 15.714844 10.421875 15.648438 10.3125 15.648438 10.226562 C 15.648438 10.144531 15.742188 10.019531 15.828125 9.988281 C 15.976562 9.9375 16.152344 10.03125 16.1875 10.183594 C 16.210938 10.28125 16.144531 10.417969 16.054688 10.460938 C 15.960938 10.507812 15.882812 10.507812 15.792969 10.460938 Z M 22.957031 13.144531 C 22.492188 13.09375 22.308594 13.039062 22.609375 13.039062 C 22.886719 13.039062 23.3125 12.957031 23.671875 12.832031 C 24.746094 12.460938 25.609375 11.597656 25.933594 10.558594 C 26.046875 10.195312 26.074219 9.992188 26.074219 9.558594 C 26.070312 9.253906 26.058594 9.113281 26.015625 8.914062 C 25.914062 8.449219 25.71875 8.015625 25.429688 7.617188 C 25.261719 7.382812 24.816406 6.953125 24.582031 6.800781 C 24.484375 6.734375 24.410156 6.675781 24.421875 6.671875 C 24.464844 6.660156 24.917969 6.851562 25.144531 6.976562 C 25.90625 7.394531 26.457031 8.027344 26.71875 8.785156 C 26.941406 9.4375 26.992188 10.378906 26.84375 10.984375 C 26.542969 12.179688 25.5 12.953125 23.949219 13.136719 C 23.753906 13.160156 23.132812 13.164062 22.957031 13.144531 Z M 22.957031 13.144531 "/>
<path style=" stroke:none;fill-rule:nonzero;fill:rgb(99.607843%,99.607843%,99.607843%);fill-opacity:1;" d="M 22.136719 12.753906 C 20.839844 12.664062 19.710938 11.902344 19.21875 10.792969 C 19.046875 10.410156 18.992188 10.15625 18.976562 9.695312 C 18.964844 9.390625 18.972656 9.238281 19.003906 9.070312 C 19.214844 7.886719 20.175781 6.871094 21.394531 6.542969 C 21.871094 6.414062 22.484375 6.378906 22.960938 6.460938 C 24.230469 6.667969 25.285156 7.546875 25.644531 8.691406 C 25.832031 9.296875 25.828125 9.949219 25.621094 10.539062 C 25.46875 10.984375 25.242188 11.355469 24.914062 11.695312 C 24.324219 12.304688 23.546875 12.667969 22.679688 12.746094 C 22.410156 12.769531 22.371094 12.769531 22.136719 12.753906 Z M 24.660156 10.769531 C 24.96875 10.65625 25.242188 10.378906 25.347656 10.078125 C 25.417969 9.878906 25.410156 9.554688 25.332031 9.34375 C 25.21875 9.03125 24.941406 8.773438 24.605469 8.667969 C 24.457031 8.621094 24.386719 8.613281 24.191406 8.625 C 23.980469 8.632812 23.933594 8.644531 23.769531 8.722656 C 23.523438 8.839844 23.347656 9.011719 23.226562 9.25 C 23.148438 9.40625 23.132812 9.457031 23.125 9.648438 C 23.109375 9.921875 23.164062 10.125 23.292969 10.324219 C 23.457031 10.566406 23.738281 10.761719 24.007812 10.816406 C 24.175781 10.851562 24.5 10.828125 24.660156 10.769531 Z M 24.660156 10.769531 "/>
<path style=" stroke:none;fill-rule:nonzero;fill:rgb(99.607843%,99.607843%,99.607843%);fill-opacity:1;" d="M 24.433594 10.070312 C 24.355469 9.992188 24.347656 9.976562 24.359375 9.882812 C 24.398438 9.605469 24.761719 9.554688 24.871094 9.808594 C 24.945312 9.976562 24.816406 10.15625 24.625 10.15625 C 24.542969 10.15625 24.503906 10.140625 24.433594 10.070312 Z M 16.265625 14.917969 C 16.070312 14.886719 15.871094 14.792969 15.789062 14.6875 C 15.699219 14.570312 15.636719 14.332031 15.65625 14.160156 C 15.691406 13.875 15.90625 13.574219 16.242188 13.339844 C 16.390625 13.238281 16.886719 12.988281 16.945312 12.988281 C 16.960938 12.988281 17.042969 13.027344 17.121094 13.074219 C 17.664062 13.394531 18.675781 13.414062 19.277344 13.121094 C 19.367188 13.074219 19.484375 13.007812 19.53125 12.964844 L 19.617188 12.890625 L 19.785156 12.949219 C 20.113281 13.074219 20.355469 13.210938 20.542969 13.394531 C 20.792969 13.632812 20.84375 13.742188 20.84375 14.050781 C 20.84375 14.269531 20.832031 14.3125 20.769531 14.449219 C 20.574219 14.867188 20.1875 14.945312 19.207031 14.773438 C 18.433594 14.640625 17.730469 14.648438 17.261719 14.796875 C 16.902344 14.910156 16.535156 14.957031 16.265625 14.917969 Z M 7.296875 12.230469 C 6.734375 12.125 6.40625 11.859375 6.242188 11.382812 C 6.191406 11.226562 6.179688 11.148438 6.179688 10.890625 C 6.179688 10.722656 6.183594 10.574219 6.195312 10.558594 C 6.203125 10.542969 6.320312 10.546875 6.558594 10.566406 C 6.859375 10.59375 7.597656 10.597656 7.691406 10.570312 C 7.714844 10.5625 7.726562 10.703125 7.734375 11.195312 C 7.742188 11.746094 7.757812 11.972656 7.8125 12.203125 C 7.824219 12.253906 7.820312 12.257812 7.617188 12.253906 C 7.5 12.253906 7.359375 12.242188 7.296875 12.230469 Z M 28.652344 12.015625 C 28.578125 12.007812 28.519531 11.992188 28.519531 11.976562 C 28.582031 11.609375 28.605469 11.253906 28.597656 10.8125 L 28.589844 10.304688 L 28.679688 10.324219 C 28.867188 10.363281 29.414062 10.335938 29.820312 10.269531 C 30.039062 10.234375 30.226562 10.210938 30.238281 10.21875 C 30.269531 10.253906 30.25 11.238281 30.214844 11.378906 C 30.164062 11.585938 30.078125 11.753906 29.992188 11.824219 C 29.777344 12 29.234375 12.078125 28.652344 12.015625 Z M 7.027344 10.339844 C 7.035156 10.3125 7.070312 10.160156 7.105469 10 C 7.199219 9.601562 7.359375 8.964844 7.433594 8.726562 C 7.570312 8.292969 7.957031 7.613281 8.640625 6.613281 L 8.683594 6.542969 L 8.613281 6.515625 C 8.507812 6.476562 8.175781 6.398438 8.121094 6.398438 C 8.046875 6.398438 8.046875 6.347656 8.113281 6.054688 C 8.203125 5.65625 8.316406 5.316406 8.425781 5.089844 C 8.582031 4.777344 8.886719 4.515625 9.410156 4.238281 L 9.628906 4.125 L 9.644531 4.203125 C 9.652344 4.242188 9.660156 4.339844 9.660156 4.417969 C 9.660156 4.609375 9.726562 5.1875 9.785156 5.519531 C 9.84375 5.855469 9.941406 6.183594 10.023438 6.359375 L 10.089844 6.484375 L 10.03125 6.519531 C 9.613281 6.789062 9.101562 7.257812 8.828125 7.617188 C 8.308594 8.304688 7.953125 9.152344 7.808594 10.066406 C 7.773438 10.28125 7.753906 10.351562 7.722656 10.351562 C 7.703125 10.351562 7.535156 10.359375 7.347656 10.367188 C 7.027344 10.382812 7.015625 10.382812 7.027344 10.339844 Z M 7.027344 10.339844 "/>
<path style=" stroke:none;fill-rule:nonzero;fill:rgb(99.607843%,99.607843%,99.607843%);fill-opacity:1;" d="M 6.453125 10.175781 C 5.839844 9.933594 5.460938 9.53125 5.34375 8.984375 C 5.230469 8.46875 5.414062 7.714844 5.753906 7.277344 C 6.023438 6.933594 6.460938 6.710938 7.007812 6.640625 C 7.371094 6.59375 8.199219 6.65625 8.183594 6.730469 C 8.179688 6.742188 8.078125 6.910156 7.953125 7.101562 C 7.828125 7.292969 7.671875 7.550781 7.609375 7.667969 L 7.484375 7.886719 L 7.371094 7.871094 C 6.914062 7.804688 6.605469 7.925781 6.519531 8.195312 C 6.46875 8.367188 6.484375 8.59375 6.554688 8.734375 C 6.609375 8.84375 6.773438 9.019531 6.9375 9.148438 L 6.992188 9.191406 L 6.921875 9.484375 C 6.878906 9.648438 6.824219 9.886719 6.792969 10.019531 C 6.75 10.203125 6.730469 10.253906 6.695312 10.253906 C 6.675781 10.253906 6.5625 10.21875 6.453125 10.175781 Z M 28.703125 10.101562 C 28.585938 10.078125 28.566406 10.066406 28.558594 10.011719 C 28.535156 9.835938 28.417969 9.308594 28.351562 9.101562 C 27.933594 7.730469 27.007812 6.613281 25.824219 6.039062 C 25.699219 5.976562 25.59375 5.925781 25.59375 5.921875 C 25.585938 5.917969 25.652344 5.765625 25.738281 5.578125 C 25.820312 5.390625 25.933594 5.128906 25.992188 4.992188 C 26.070312 4.804688 26.652344 3.578125 26.679688 3.546875 C 26.683594 3.539062 26.796875 3.613281 26.933594 3.707031 C 27.070312 3.800781 27.3125 3.960938 27.464844 4.066406 C 27.757812 4.261719 27.988281 4.496094 28.097656 4.707031 C 28.125 4.757812 28.246094 5.105469 28.371094 5.480469 C 28.5 5.859375 28.609375 6.183594 28.617188 6.207031 C 28.628906 6.238281 28.617188 6.253906 28.5625 6.265625 C 28.371094 6.304688 28.109375 6.378906 28.078125 6.398438 C 28.050781 6.410156 28.101562 6.535156 28.324219 7.007812 C 28.890625 8.195312 29.078125 8.652344 29.148438 9.035156 C 29.191406 9.28125 29.246094 10.035156 29.226562 10.09375 C 29.210938 10.125 29.175781 10.132812 29.027344 10.128906 C 28.925781 10.128906 28.78125 10.117188 28.703125 10.101562 Z M 28.703125 10.101562 "/>
<path style=" stroke:none;fill-rule:nonzero;fill:rgb(99.607843%,99.607843%,99.607843%);fill-opacity:1;" d="M 29.523438 9.75 C 29.515625 9.644531 29.496094 9.433594 29.480469 9.285156 C 29.464844 9.128906 29.460938 9.003906 29.464844 9 C 29.46875 8.996094 29.535156 8.957031 29.609375 8.917969 C 29.777344 8.828125 29.949219 8.664062 30.019531 8.535156 C 30.140625 8.3125 30.058594 7.976562 29.84375 7.789062 C 29.679688 7.648438 29.535156 7.609375 29.21875 7.621094 L 28.953125 7.628906 L 28.707031 7.109375 C 28.570312 6.824219 28.464844 6.585938 28.476562 6.582031 C 28.511719 6.5625 28.894531 6.519531 29.054688 6.519531 C 30.011719 6.519531 30.636719 6.96875 30.90625 7.851562 C 30.960938 8.019531 30.980469 8.140625 30.984375 8.375 C 31 8.71875 30.972656 8.886719 30.851562 9.128906 C 30.753906 9.324219 30.449219 9.609375 30.226562 9.722656 C 30.066406 9.804688 29.65625 9.9375 29.574219 9.9375 C 29.550781 9.9375 29.535156 9.882812 29.523438 9.75 Z M 10.117188 6.210938 C 9.96875 5.828125 9.863281 5.238281 9.808594 4.484375 L 9.777344 4.046875 L 9.976562 3.859375 C 10.09375 3.75 10.335938 3.570312 10.578125 3.414062 C 11.054688 3.109375 11.414062 2.816406 11.875 2.351562 C 12.316406 1.90625 12.613281 1.714844 13.699219 1.183594 C 14.621094 0.730469 14.738281 0.695312 16.089844 0.480469 C 16.464844 0.417969 16.914062 0.339844 17.09375 0.304688 C 17.269531 0.269531 17.417969 0.246094 17.421875 0.246094 C 17.4375 0.246094 17.460938 0.378906 17.519531 0.878906 C 17.660156 2.046875 17.667969 2.167969 17.671875 3.453125 C 17.675781 4.125 17.683594 4.738281 17.695312 4.8125 L 17.714844 4.953125 L 17.316406 4.964844 C 14.230469 5.089844 12.023438 5.503906 10.515625 6.253906 C 10.355469 6.332031 10.214844 6.398438 10.207031 6.398438 C 10.199219 6.398438 10.160156 6.3125 10.117188 6.210938 Z M 25.167969 5.761719 C 24.273438 5.429688 22.90625 5.164062 21.445312 5.042969 C 20.519531 4.964844 20.085938 4.949219 18.980469 4.945312 L 17.847656 4.945312 L 17.832031 4.613281 C 17.820312 4.433594 17.816406 3.839844 17.816406 3.296875 C 17.820312 2.242188 17.800781 1.945312 17.648438 0.734375 C 17.613281 0.472656 17.59375 0.253906 17.601562 0.246094 C 17.625 0.21875 18.902344 0.238281 19.269531 0.265625 C 20.109375 0.332031 20.75 0.421875 21.042969 0.511719 C 21.128906 0.539062 21.332031 0.613281 21.496094 0.679688 C 21.765625 0.785156 22.601562 1.078125 23.269531 1.296875 C 23.78125 1.460938 24.320312 1.65625 24.441406 1.714844 C 24.726562 1.855469 25.394531 2.386719 26.167969 3.085938 L 26.5625 3.441406 L 26.492188 3.597656 C 26.453125 3.679688 26.335938 3.925781 26.226562 4.140625 C 26.121094 4.355469 25.980469 4.65625 25.914062 4.808594 C 25.664062 5.394531 25.453125 5.859375 25.4375 5.859375 C 25.429688 5.859375 25.304688 5.8125 25.167969 5.761719 Z M 25.167969 5.761719 "/>
</g>
</svg>
